<?xml version="1.0" encoding="UTF-8"?>
<svg width="17px" height="20px" viewBox="0 0 17 20" version="1.1" xmlns="http://www.w3.org/2000/svg" xmlns:xlink="http://www.w3.org/1999/xlink">
    <!-- Generator: sketchtool 54.1 (76490) - https://sketchapp.com -->
    <title>9B267FDE-C55E-4CFE-ABBA-B9C067B428A9</title>
    <desc>Created with sketchtool.</desc>
    <g id="Page-1" stroke="none" stroke-width="1" fill="none" fill-rule="evenodd" opacity="0.3">
        <g id="VA" transform="translate(-30.000000, -559.000000)">
            <g id="template-/-infos-principales-/-1-lieu-+-link-" transform="translate(14.000000, 354.000000)">
                <g id="icon-/-microscope" transform="translate(14.000000, 205.000000)">
                    <rect id="Rectangle" x="0" y="0" width="20" height="20"></rect>
                    <path d="M17,0 L3,0 C1.34314575,0 0,1.34314575 0,3 L0,17 C0,18.6568542 1.34314575,20 3,20 L17,20 C18.6568542,20 20,18.6568542 20,17 L20,3 C20,1.34314575 18.6568542,0 17,0 Z M17,18 L3,18 C2.44771525,18 2,17.5522847 2,17 L2,3 C2,2.44771525 2.44771525,2 3,2 L17,2 C17.5522847,2 18,2.44771525 18,3 L18,17 C18,17.5522847 17.5522847,18 17,18 Z M10,4 C11.1045695,4 12,4.8954305 12,6 C12,7.1045695 11.1045695,8 10,8 C8.8954305,8 8,7.1045695 8,6 C8,4.8954305 8.8954305,4 10,4 Z M10,10 C11.1045695,10 12,10.8954305 12,12 C12,13.1045695 11.1045695,14 10,14 C8.8954305,14 8,13.1045695 8,12 C8,10.8954305 8.8954305,10 10,10 Z" id="Shape" fill="#000000" fill-rule="nonzero"></path>
                </g>
            </g>
        </g>
    </g>
</svg>
