<?xml version="1.0" standalone="no"?>
<!DOCTYPE svg PUBLIC "-//W3C//DTD SVG 20010904//EN"
 "http://www.w3.org/TR/2001/REC-SVG-20010904/DTD/svg10.dtd">
<svg version="1.0" xmlns="http://www.w3.org/2000/svg"
 width="700.000000pt" height="700.000000pt" viewBox="0 0 700.000000 700.000000"
 preserveAspectRatio="xMidYMid meet">
<metadata>
Created by potrace 1.14, written by Peter Selinger 2001-2017
</metadata>
<g transform="translate(0.000000,700.000000) scale(0.100000,-0.100000)"
fill="#000000" stroke="none">
<path d="M4353 6620 c-17 -4 -51 -19 -75 -33 -56 -33 -148 -118 -148 -138 1
-41 44 -54 117 -34 l48 13 -55 3 c-30 2 -54 9 -54 14 3 17 147 97 185 102 32
5 37 2 47 -23 6 -16 14 -47 17 -69 4 -22 9 -51 11 -65 10 -58 67 -245 100
-327 36 -90 81 -168 121 -212 l22 -25 -48 -31 c-26 -17 -88 -56 -137 -85 -252
-151 -361 -245 -480 -416 -65 -92 -205 -361 -249 -477 -10 -26 -21 -44 -26
-40 -4 4 -24 39 -45 77 -31 56 -37 79 -36 121 1 58 49 230 89 315 14 30 29 64
33 75 5 11 18 42 29 69 31 73 25 79 -12 11 -50 -92 -124 -202 -157 -235 -45
-44 -102 -70 -187 -86 -30 -6 -53 21 -53 63 l0 36 -41 -44 c-90 -97 -94 -169
-21 -317 106 -211 105 -253 -14 -602 -112 -330 -232 -593 -376 -820 -126 -199
-167 -249 -344 -420 -55 -52 -184 -180 -288 -284 -173 -173 -227 -224 -326
-311 -54 -46 -243 -171 -312 -206 -35 -17 -64 -32 -65 -33 -2 -1 22 -28 52
-59 40 -42 71 -90 120 -189 37 -73 81 -153 97 -178 17 -25 67 -99 111 -165 44
-66 100 -146 125 -179 65 -85 20 -56 -98 63 -93 93 -123 130 -347 426 -120
159 -175 226 -218 266 -16 16 -27 30 -25 32 3 2 35 20 72 40 115 64 395 254
514 350 11 9 57 46 104 83 47 38 90 73 96 79 6 5 44 39 85 74 125 109 429 421
518 531 153 191 228 318 349 590 123 278 170 434 189 625 11 118 8 142 -37
232 -22 45 -40 86 -40 92 0 5 -9 16 -20 24 -28 20 -63 102 -54 130 4 12 27 44
52 72 56 63 106 135 98 142 -3 4 -6 1 -6 -5 0 -6 -40 -52 -90 -102 -83 -83
-90 -94 -90 -130 0 -43 25 -119 45 -135 13 -11 59 -116 77 -175 8 -25 7 -61
-2 -128 -28 -222 -54 -309 -174 -582 -93 -212 -159 -337 -237 -450 -191 -279
-610 -690 -989 -972 -203 -150 -500 -338 -536 -338 -6 0 -24 6 -40 14 -59 30
-109 35 -151 16 -31 -14 -83 -66 -83 -84 0 -12 77 -47 114 -52 38 -5 97 4 138
21 26 11 115 -79 231 -235 56 -74 136 -180 179 -235 44 -55 84 -107 91 -115
151 -193 269 -290 487 -399 167 -84 237 -94 328 -46 62 32 92 53 141 98 22 20
42 37 45 37 2 0 46 -48 98 -108 107 -124 235 -304 321 -453 52 -91 120 -186
193 -269 12 -14 36 -41 52 -60 17 -19 33 -32 36 -29 10 10 -35 153 -64 205
-21 36 -42 106 -74 250 -24 109 -47 219 -51 244 -4 25 -15 74 -26 109 -20 67
-24 86 -35 166 -3 28 -8 54 -11 59 -10 15 -13 281 -4 295 11 16 113 18 162 3
37 -12 124 -28 204 -37 28 -4 60 -8 73 -10 13 -2 53 -7 90 -11 37 -3 75 -8 84
-9 9 -2 49 -7 90 -10 40 -4 87 -9 103 -10 17 -2 73 -7 125 -10 135 -11 125 -6
123 -55 -3 -57 10 -41 31 40 37 139 96 287 134 341 45 63 90 80 167 64 53 -12
71 -8 119 23 67 44 95 52 175 52 42 0 87 6 101 13 29 15 172 186 201 241 18
33 20 49 14 100 -4 34 -8 99 -10 146 -7 146 -14 166 -101 280 -59 77 -111 129
-199 195 -158 119 -234 264 -223 424 3 36 14 83 24 105 l19 38 -24 19 c-14 11
-30 18 -37 15 -8 -3 -48 -32 -91 -64 -204 -156 -414 -258 -574 -279 -204 -26
-392 23 -503 134 -151 150 -149 325 6 718 22 55 53 141 70 190 16 50 40 108
53 131 13 23 33 63 44 90 10 27 40 94 66 149 26 55 60 127 75 160 135 295 224
439 345 560 68 68 156 131 320 230 44 26 107 66 140 88 33 22 82 48 109 57
l48 18 -55 42 c-113 85 -203 280 -260 566 -24 116 -45 175 -67 189 -24 15 -67
21 -97 15z m237 -3185 c0 -10 -112 -86 -191 -128 -91 -49 -187 -82 -265 -91
-43 -5 -41 -4 23 14 100 27 209 73 304 131 45 27 84 49 86 49 3 0 11 7 19 15
16 15 24 19 24 10z m213 -361 c21 -24 67 -65 101 -91 87 -65 160 -138 215
-213 63 -85 70 -109 70 -210 -1 -47 4 -98 10 -113 24 -61 4 -125 -55 -185 -9
-8 -33 -39 -55 -68 -22 -29 -48 -58 -58 -64 -11 -5 -50 -10 -88 -9 -76 1 -139
-18 -190 -57 -31 -23 -38 -25 -91 -17 -105 16 -152 -6 -217 -103 -32 -47 -46
-82 -68 -174 -15 -63 -29 -131 -32 -151 -6 -41 8 -40 -155 -8 -52 10 -110 21
-127 24 -18 3 -77 14 -130 24 -54 11 -118 22 -143 26 -24 4 -47 8 -50 10 -3 2
-30 6 -60 10 -30 3 -62 8 -70 10 -8 2 -31 7 -50 10 -19 3 -53 10 -75 15 -62
14 -194 12 -260 -5 -162 -42 -306 -159 -383 -313 -50 -101 -63 -118 -126 -166
-102 -77 -159 -93 -233 -65 l-25 9 39 29 c56 40 115 111 191 228 188 289 268
386 365 439 42 23 64 29 115 28 57 0 75 -7 207 -72 132 -66 225 -106 272 -117
208 -50 318 -48 310 5 -2 11 -6 23 -10 26 -4 4 -7 13 -7 20 0 13 12 13 110 -8
142 -30 187 -8 285 139 33 49 74 105 91 125 44 50 193 131 319 173 152 50 227
89 280 146 50 54 65 84 65 134 0 54 -38 111 -155 230 -60 61 -120 125 -131
141 -57 79 -89 178 -98 299 l-5 70 32 -58 c17 -32 48 -78 70 -103z m-3560
-861 c-7 -2 -19 -2 -25 0 -7 3 -2 5 12 5 14 0 19 -2 13 -5z m1942 -628 c3 -39
8 -83 10 -100 2 -16 7 -52 11 -80 3 -27 8 -53 10 -56 1 -3 6 -26 9 -51 4 -26
13 -73 21 -105 23 -88 41 -167 64 -288 12 -60 28 -132 36 -159 8 -27 14 -52
14 -55 0 -3 -26 40 -59 95 -52 88 -295 437 -341 489 -22 26 -50 84 -50 104 2
52 92 169 170 220 64 42 94 59 97 57 1 -1 5 -33 8 -71z"/>
<path d="M4300 6390 c-14 -4 -50 -9 -80 -9 -70 -2 -84 -10 -71 -42 18 -48 87
-93 160 -105 59 -9 69 3 66 81 -2 36 -6 69 -10 75 -7 11 -29 12 -65 0z"/>
<path d="M3743 6077 c-13 -5 -25 -18 -28 -28 -6 -16 -8 -16 -41 6 -29 19 -40
22 -67 14 -68 -19 -112 -70 -142 -165 -29 -91 -25 -188 9 -257 28 -59 86 -127
108 -127 7 -1 30 -3 51 -6 20 -3 37 -2 37 3 -1 4 -25 33 -55 63 -57 58 -57 55
-59 168 -1 40 -6 57 -19 67 -15 10 -17 21 -12 44 5 26 11 31 34 31 43 0 90
-38 148 -120 66 -93 81 -100 124 -56 18 19 40 47 48 64 9 16 29 46 44 65 15
19 31 51 34 71 5 31 1 40 -30 71 -25 25 -44 35 -66 35 -23 0 -34 7 -45 29 -17
33 -42 42 -73 28z m132 -137 c3 -5 1 -10 -4 -10 -6 0 -11 5 -11 10 0 6 2 10 4
10 3 0 8 -4 11 -10z"/>
<path d="M3742 4054 c-32 -59 -20 -144 20 -144 26 0 182 49 212 67 18 10 18
11 -5 18 -13 4 -53 21 -89 37 -87 40 -125 46 -138 22z"/>
<path d="M3985 3952 c-28 -6 -68 -44 -54 -52 18 -12 -91 -51 -180 -66 -47 -7
-91 -20 -99 -28 -12 -12 -11 -16 12 -31 32 -21 122 -16 201 10 61 21 182 80
215 105 l25 19 -25 18 c-29 21 -66 31 -95 25z"/>
<path d="M4783 1422 c-22 -3 -23 -8 -23 -85 l0 -82 58 60 c31 33 68 73 82 88
l24 28 -59 -3 c-33 -2 -70 -4 -82 -6z"/>
</g>
</svg>
