<svg viewBox="0 0 270.3 95.4"
	xmlns="http://www.w3.org/2000/svg">
	<g id="svgGroup" stroke-linecap="round" fill-rule="evenodd" fill="currentColor">
		<path d="M 89.9 73.8 Q 89.9 70.2 91.75 63.8 Q 93.6 57.4 96.6 49.8 Q 99.6 42.2 103.4 34.1 A 281.67 281.67 0 0 1 108.17 24.405 A 237.495 237.495 0 0 1 111.05 19 A 167.886 167.886 0 0 1 114.361 13.239 Q 116.453 9.769 118.45 6.9 Q 122 1.8 124.5 0 Q 125.9 0.1 127.55 1.2 Q 129.2 2.3 130.6 3.85 A 18.112 18.112 0 0 1 132.642 6.572 A 16.461 16.461 0 0 1 132.95 7.1 A 9.165 9.165 0 0 1 133.491 8.233 Q 133.9 9.281 133.9 10.2 A 52.283 52.283 0 0 0 129.648 14.025 Q 127.22 16.448 124.75 19.45 Q 120.1 25.1 115.9 31.85 Q 111.7 38.6 108.15 46.15 Q 104.6 53.7 102.2 61 A 95.689 95.689 0 0 1 106.317 54.516 A 81.155 81.155 0 0 1 108.9 51 Q 112.4 46.5 115.9 43.3 A 39.903 39.903 0 0 1 118.934 40.778 Q 120.624 39.515 122.278 38.603 A 24.035 24.035 0 0 1 122.75 38.35 Q 126.1 36.6 129.1 36.5 Q 133.5 39.7 133.5 45 A 16.809 16.809 0 0 1 132.642 50.233 A 19.79 19.79 0 0 1 132.2 51.45 Q 130.9 54.7 128.75 57.45 Q 126.6 60.2 123.85 62.15 A 15.875 15.875 0 0 1 120.315 64.06 A 13.854 13.854 0 0 1 118.1 64.7 Q 119.1 68.2 120.65 71.8 Q 122.2 75.4 124.35 78.8 Q 126.5 82.2 129.25 85.1 Q 132 88 135.5 90 Q 135.031 90.937 134.123 91.875 A 11.051 11.051 0 0 1 134 92 A 9.622 9.622 0 0 1 132.376 93.296 A 11.583 11.583 0 0 1 131.6 93.75 A 14.298 14.298 0 0 1 129.009 94.818 A 16.148 16.148 0 0 1 128.55 94.95 A 12.504 12.504 0 0 1 125.801 95.389 A 11.471 11.471 0 0 1 125.3 95.4 A 5.604 5.604 0 0 1 122.256 94.473 Q 121.223 93.818 120.25 92.7 A 17.047 17.047 0 0 1 118.551 90.337 Q 117.784 89.072 117.073 87.51 A 40.051 40.051 0 0 1 116 84.9 A 71.169 71.169 0 0 1 114.889 81.6 Q 114.318 79.764 113.762 77.684 A 131.116 131.116 0 0 1 113.1 75.1 A 181.647 181.647 0 0 1 111.169 66.269 A 201.832 201.832 0 0 1 110.6 63.2 Q 112 62.3 114.1 60.55 Q 116.2 58.8 118.5 56.5 A 52.454 52.454 0 0 0 122.298 52.456 Q 125.913 48.133 126.915 44.493 A 10.131 10.131 0 0 0 127.3 41.8 A 0.812 0.812 0 0 0 127.218 41.422 Q 126.999 41 126.2 41 Q 124.2 41.1 121.5 42.9 A 26.661 26.661 0 0 0 119.16 44.668 Q 118.028 45.618 116.841 46.789 A 50.75 50.75 0 0 0 115.75 47.9 Q 112.7 51.1 109.55 55.4 Q 106.4 59.7 103.5 64.7 A 26.268 26.268 0 0 0 102.23 67.103 A 34.311 34.311 0 0 0 101.3 69.3 Q 100.3 71.9 99.55 74.65 Q 98.8 77.4 98.4 80.1 A 38.505 38.505 0 0 0 98.082 82.933 A 29.764 29.764 0 0 0 98 85.1 A 10.824 10.824 0 0 0 98.035 86.003 Q 98.074 86.457 98.152 86.842 A 4.836 4.836 0 0 0 98.3 87.4 A 12.322 12.322 0 0 1 97.059 87.221 Q 95.798 86.967 95.113 86.474 A 2.012 2.012 0 0 1 94.5 85.8 Q 93.784 84.727 93.269 84.013 A 29.207 29.207 0 0 0 93.15 83.85 Q 92.6 83.1 92 82.6 A 2.484 2.484 0 0 1 91.492 82.043 Q 91.078 81.443 90.742 80.425 A 13.549 13.549 0 0 1 90.5 79.6 Q 89.9 77.3 89.9 73.8 Z M 139.7 73.8 Q 139.7 70.2 141.55 63.8 Q 143.4 57.4 146.4 49.8 Q 149.4 42.2 153.2 34.1 A 281.67 281.67 0 0 1 157.97 24.405 A 237.495 237.495 0 0 1 160.85 19 A 167.886 167.886 0 0 1 164.161 13.239 Q 166.253 9.769 168.25 6.9 Q 171.8 1.8 174.3 0 Q 175.7 0.1 177.35 1.2 Q 179 2.3 180.4 3.85 A 18.112 18.112 0 0 1 182.442 6.572 A 16.461 16.461 0 0 1 182.75 7.1 A 9.165 9.165 0 0 1 183.291 8.233 Q 183.7 9.281 183.7 10.2 A 52.283 52.283 0 0 0 179.448 14.025 Q 177.02 16.448 174.55 19.45 Q 169.9 25.1 165.7 31.85 Q 161.5 38.6 157.95 46.15 Q 154.4 53.7 152 61 A 95.689 95.689 0 0 1 156.117 54.516 A 81.155 81.155 0 0 1 158.7 51 Q 162.2 46.5 165.7 43.3 A 39.903 39.903 0 0 1 168.734 40.778 Q 170.424 39.515 172.078 38.603 A 24.035 24.035 0 0 1 172.55 38.35 Q 175.9 36.6 178.9 36.5 Q 183.3 39.7 183.3 45 A 16.809 16.809 0 0 1 182.442 50.233 A 19.79 19.79 0 0 1 182 51.45 Q 180.7 54.7 178.55 57.45 Q 176.4 60.2 173.65 62.15 A 15.875 15.875 0 0 1 170.115 64.06 A 13.854 13.854 0 0 1 167.9 64.7 Q 168.9 68.2 170.45 71.8 Q 172 75.4 174.15 78.8 Q 176.3 82.2 179.05 85.1 Q 181.8 88 185.3 90 Q 184.831 90.937 183.923 91.875 A 11.051 11.051 0 0 1 183.8 92 A 9.622 9.622 0 0 1 182.176 93.296 A 11.583 11.583 0 0 1 181.4 93.75 A 14.298 14.298 0 0 1 178.809 94.818 A 16.148 16.148 0 0 1 178.35 94.95 A 12.504 12.504 0 0 1 175.601 95.389 A 11.471 11.471 0 0 1 175.1 95.4 A 5.604 5.604 0 0 1 172.056 94.473 Q 171.023 93.818 170.05 92.7 A 17.047 17.047 0 0 1 168.351 90.337 Q 167.584 89.072 166.873 87.51 A 40.051 40.051 0 0 1 165.8 84.9 A 71.169 71.169 0 0 1 164.689 81.6 Q 164.118 79.764 163.562 77.684 A 131.116 131.116 0 0 1 162.9 75.1 A 181.647 181.647 0 0 1 160.969 66.269 A 201.832 201.832 0 0 1 160.4 63.2 Q 161.8 62.3 163.9 60.55 Q 166 58.8 168.3 56.5 A 52.454 52.454 0 0 0 172.098 52.456 Q 175.713 48.133 176.715 44.493 A 10.131 10.131 0 0 0 177.1 41.8 A 0.812 0.812 0 0 0 177.018 41.422 Q 176.799 41 176 41 Q 174 41.1 171.3 42.9 A 26.661 26.661 0 0 0 168.96 44.668 Q 167.828 45.618 166.641 46.789 A 50.75 50.75 0 0 0 165.55 47.9 Q 162.5 51.1 159.35 55.4 Q 156.2 59.7 153.3 64.7 A 26.268 26.268 0 0 0 152.03 67.103 A 34.311 34.311 0 0 0 151.1 69.3 Q 150.1 71.9 149.35 74.65 Q 148.6 77.4 148.2 80.1 A 38.505 38.505 0 0 0 147.882 82.933 A 29.764 29.764 0 0 0 147.8 85.1 A 10.824 10.824 0 0 0 147.835 86.003 Q 147.874 86.457 147.952 86.842 A 4.836 4.836 0 0 0 148.1 87.4 A 12.322 12.322 0 0 1 146.859 87.221 Q 145.598 86.967 144.913 86.474 A 2.012 2.012 0 0 1 144.3 85.8 Q 143.584 84.727 143.069 84.013 A 29.207 29.207 0 0 0 142.95 83.85 Q 142.4 83.1 141.8 82.6 A 2.484 2.484 0 0 1 141.292 82.043 Q 140.878 81.443 140.542 80.425 A 13.549 13.549 0 0 1 140.3 79.6 Q 139.7 77.3 139.7 73.8 Z M 78.07 42.858 A 7.066 7.066 0 0 0 77.2 42.8 Q 76.1 45.1 74.85 47.55 Q 73.6 50 72.3 52.4 Q 71 54.8 69.75 57 Q 68.5 59.2 67.5 61 Q 63.703 67.398 60.697 71.449 A 48.71 48.71 0 0 1 58.3 74.45 A 32.47 32.47 0 0 1 57.158 75.694 Q 54.056 78.892 51.6 79.4 A 1.941 1.941 0 0 1 50.677 78.742 Q 50.2 78.11 50.2 77 Q 50.2 74.412 50.896 71.604 A 31.597 31.597 0 0 1 52.4 67.1 Q 54.6 61.8 58.05 57.15 A 45.451 45.451 0 0 1 58.928 56.004 A 40.045 40.045 0 0 1 65.75 49.2 A 27.375 27.375 0 0 1 66.842 48.394 Q 68.473 47.253 70.066 46.515 A 14.475 14.475 0 0 1 74 45.3 Q 73.931 44.678 73.527 43.888 A 8.861 8.861 0 0 0 73.1 43.15 A 14.432 14.432 0 0 0 72.509 42.297 A 17.077 17.077 0 0 0 71.15 40.7 A 19.346 19.346 0 0 0 70.788 40.332 A 17.153 17.153 0 0 0 68.75 38.6 A 11.983 11.983 0 0 0 68.085 38.153 Q 67.227 37.618 66.5 37.4 A 10.754 10.754 0 0 0 64.375 37.723 Q 61.27 38.511 58 41.15 A 38.837 38.837 0 0 0 54.403 44.457 A 47.769 47.769 0 0 0 49.85 50 Q 46.1 55.3 43.7 61.5 A 38.525 38.525 0 0 0 42.146 66.438 A 29.451 29.451 0 0 0 41.3 73.3 A 22.772 22.772 0 0 0 41.308 73.919 Q 41.438 78.702 43.6 81.85 A 10.371 10.371 0 0 0 44.197 82.638 A 7.315 7.315 0 0 0 49.6 85.4 Q 51.9 85 54.65 83.05 Q 57.4 81.1 60.1 78 A 53.631 53.631 0 0 0 62.443 75.106 A 67.976 67.976 0 0 0 65.4 70.85 Q 68 66.8 70 62.2 A 100.092 100.092 0 0 0 69.105 64.621 Q 66.2 72.816 66.2 77.8 A 16.233 16.233 0 0 0 66.315 79.801 Q 66.772 83.472 69.051 84.647 A 5.496 5.496 0 0 0 71.6 85.2 A 9.463 9.463 0 0 0 71.98 85.192 Q 72.671 85.164 73.441 85.037 A 17.046 17.046 0 0 0 75 84.7 A 15.2 15.2 0 0 0 75.647 84.515 Q 77.111 84.059 78.1 83.4 A 4.026 4.026 0 0 1 76.662 81.99 A 5.685 5.685 0 0 1 76.1 80.75 Q 75.5 78.9 75.5 76.1 Q 75.5 73.6 76.15 70.2 A 60.031 60.031 0 0 1 76.824 67.129 A 76.882 76.882 0 0 1 78 62.9 A 94.872 94.872 0 0 1 78.97 59.926 A 112.785 112.785 0 0 1 80.9 54.75 Q 82.6 50.5 84.6 46.3 A 0.746 0.746 0 0 0 84.562 46.07 Q 84.471 45.787 84.16 45.476 A 3.702 3.702 0 0 0 83.85 45.2 Q 83.428 44.862 82.896 44.541 A 12.842 12.842 0 0 0 82 44.05 Q 80.9 43.5 79.55 43.15 Q 78.748 42.942 78.07 42.858 Z M 224.17 42.858 A 7.066 7.066 0 0 0 223.3 42.8 Q 222.2 45.1 220.95 47.55 Q 219.7 50 218.4 52.4 Q 217.1 54.8 215.85 57 Q 214.6 59.2 213.6 61 Q 209.803 67.398 206.797 71.449 A 48.71 48.71 0 0 1 204.4 74.45 A 32.47 32.47 0 0 1 203.258 75.694 Q 200.156 78.892 197.7 79.4 A 1.941 1.941 0 0 1 196.777 78.742 Q 196.3 78.11 196.3 77 Q 196.3 74.412 196.996 71.604 A 31.597 31.597 0 0 1 198.5 67.1 Q 200.7 61.8 204.15 57.15 A 45.451 45.451 0 0 1 205.028 56.004 A 40.045 40.045 0 0 1 211.85 49.2 A 27.375 27.375 0 0 1 212.942 48.394 Q 214.573 47.253 216.166 46.515 A 14.475 14.475 0 0 1 220.1 45.3 Q 220.031 44.678 219.627 43.888 A 8.861 8.861 0 0 0 219.2 43.15 A 14.432 14.432 0 0 0 218.609 42.297 A 17.077 17.077 0 0 0 217.25 40.7 A 19.346 19.346 0 0 0 216.888 40.332 A 17.153 17.153 0 0 0 214.85 38.6 A 11.983 11.983 0 0 0 214.185 38.153 Q 213.327 37.618 212.6 37.4 A 10.754 10.754 0 0 0 210.475 37.723 Q 207.37 38.511 204.1 41.15 A 38.837 38.837 0 0 0 200.503 44.457 A 47.769 47.769 0 0 0 195.95 50 Q 192.2 55.3 189.8 61.5 A 38.525 38.525 0 0 0 188.246 66.438 A 29.451 29.451 0 0 0 187.4 73.3 A 22.772 22.772 0 0 0 187.408 73.919 Q 187.538 78.702 189.7 81.85 A 10.371 10.371 0 0 0 190.297 82.638 A 7.315 7.315 0 0 0 195.7 85.4 Q 198 85 200.75 83.05 Q 203.5 81.1 206.2 78 A 53.631 53.631 0 0 0 208.543 75.106 A 67.976 67.976 0 0 0 211.5 70.85 Q 214.1 66.8 216.1 62.2 A 100.092 100.092 0 0 0 215.205 64.621 Q 212.3 72.816 212.3 77.8 A 16.233 16.233 0 0 0 212.415 79.801 Q 212.872 83.472 215.151 84.647 A 5.496 5.496 0 0 0 217.7 85.2 A 9.463 9.463 0 0 0 218.08 85.192 Q 218.771 85.164 219.541 85.037 A 17.046 17.046 0 0 0 221.1 84.7 A 15.2 15.2 0 0 0 221.747 84.515 Q 223.211 84.059 224.2 83.4 A 4.026 4.026 0 0 1 222.762 81.99 A 5.685 5.685 0 0 1 222.2 80.75 Q 221.6 78.9 221.6 76.1 Q 221.6 73.6 222.25 70.2 A 60.031 60.031 0 0 1 222.924 67.129 A 76.882 76.882 0 0 1 224.1 62.9 A 94.872 94.872 0 0 1 225.07 59.926 A 112.785 112.785 0 0 1 227 54.75 Q 228.7 50.5 230.7 46.3 A 0.746 0.746 0 0 0 230.662 46.07 Q 230.571 45.787 230.26 45.476 A 3.702 3.702 0 0 0 229.95 45.2 Q 229.528 44.862 228.996 44.541 A 12.842 12.842 0 0 0 228.1 44.05 Q 227 43.5 225.65 43.15 Q 224.848 42.942 224.17 42.858 Z M 269.95 46.083 A 18.17 18.17 0 0 0 270.3 43.4 A 3.893 3.893 0 0 0 270.2 43.066 Q 269.812 41.952 268.6 40.35 A 31.883 31.883 0 0 0 267.863 39.414 A 36.596 36.596 0 0 0 265.4 36.7 A 44.762 44.762 0 0 0 264.723 36.037 A 39.649 39.649 0 0 0 261.75 33.45 A 21.379 21.379 0 0 0 261.1 32.959 Q 260.181 32.294 259.478 31.96 A 4.129 4.129 0 0 0 258.8 31.7 A 14.09 14.09 0 0 0 257.473 32.076 A 15.566 15.566 0 0 0 253.8 33.9 Q 251.4 35.5 249.6 37.75 Q 247.8 40 246.7 42.65 A 15.716 15.716 0 0 0 246.567 42.981 A 13.755 13.755 0 0 0 245.6 48 Q 245.6 50.1 246.1 52.25 Q 246.6 54.4 247.15 56.65 A 127.873 127.873 0 0 1 247.184 56.791 A 139.24 139.24 0 0 1 248.2 61.3 Q 248.7 63.7 248.7 66.2 A 27.325 27.325 0 0 0 247.61 66.296 A 23.794 23.794 0 0 0 240.55 68.15 Q 236.8 69.8 234.05 72.45 Q 231.3 75.1 229.7 78.55 Q 228.1 82 228.1 85.8 A 7.683 7.683 0 0 0 228.586 87.058 A 9.532 9.532 0 0 0 229.5 88.55 Q 230.5 89.9 231.85 91 Q 233.2 92.1 234.7 92.8 A 9.712 9.712 0 0 0 235.857 93.255 A 7.493 7.493 0 0 0 237.6 93.6 A 24.356 24.356 0 0 0 242.096 92.746 A 17.167 17.167 0 0 0 250.25 87.7 A 17.337 17.337 0 0 0 254.167 80.008 A 25.183 25.183 0 0 0 254.8 74.2 A 56.923 56.923 0 0 0 254.8 74.142 Q 254.799 72.981 254.75 72.2 Q 254.7 71.4 254.7 70.6 A 3.91 3.91 0 0 1 254.715 70.241 Q 254.748 69.888 254.85 69.65 A 0.658 0.658 0 0 1 254.94 69.501 Q 255.084 69.319 255.387 69.152 A 3.457 3.457 0 0 1 255.7 69 A 6.785 6.785 0 0 1 255.966 68.893 Q 256.637 68.638 257.75 68.35 A 52.564 52.564 0 0 1 258.435 68.178 Q 259.639 67.883 261.4 67.5 A 1.18 1.18 0 0 0 261.661 67.088 Q 261.734 66.901 261.768 66.666 A 3.195 3.195 0 0 0 261.8 66.2 A 6.687 6.687 0 0 0 261.799 66.115 Q 261.795 65.728 261.744 65.525 A 0.617 0.617 0 0 0 261.7 65.4 Q 260.1 65.4 258.45 65.45 A 154.147 154.147 0 0 0 258.229 65.457 Q 256.661 65.507 254.7 65.6 A 0.239 0.239 0 0 1 254.697 65.594 Q 254.618 65.425 254.604 64.747 A 15.806 15.806 0 0 1 254.6 64.4 Q 254.6 54.7 256.7 49.7 Q 258.8 44.7 262.8 44.7 A 2.531 2.531 0 0 1 262.821 44.7 Q 263.487 44.706 263.986 45.062 A 2.32 2.32 0 0 1 264.55 45.65 A 3.601 3.601 0 0 1 265.089 46.918 A 4.994 4.994 0 0 1 265.2 48 A 3.242 3.242 0 0 1 265.186 48.292 Q 265.163 48.545 265.102 48.828 A 6.548 6.548 0 0 1 264.95 49.4 Q 264.7 50.2 264.4 51 Q 264.1 51.8 263.85 52.45 A 7.192 7.192 0 0 0 263.744 52.743 Q 263.65 53.022 263.618 53.216 A 1.121 1.121 0 0 0 263.6 53.4 Q 263.721 54.248 264.172 54.619 A 1.301 1.301 0 0 0 264.9 54.9 Q 265.5 54.9 266.156 54.281 A 5.097 5.097 0 0 0 266.6 53.8 Q 267.106 53.181 267.581 52.388 A 17.305 17.305 0 0 0 268.3 51.05 A 18.456 18.456 0 0 0 268.952 49.53 A 22.993 22.993 0 0 0 269.65 47.35 A 21.508 21.508 0 0 0 269.95 46.083 Z M 1.75 73.55 A 184.416 184.416 0 0 0 1.637 73.98 Q 0.477 78.432 0 81.2 Q 0.206 81.75 0.743 82.347 A 7.457 7.457 0 0 0 1.3 82.9 A 15.567 15.567 0 0 0 1.882 83.398 A 18.002 18.002 0 0 0 3.55 84.6 A 20.385 20.385 0 0 0 4.029 84.897 A 17.931 17.931 0 0 0 6.05 85.95 A 11.803 11.803 0 0 0 6.708 86.217 Q 7.546 86.527 8.2 86.6 A 165.257 165.257 0 0 1 8.911 83.47 Q 10.087 78.528 11.35 74.7 A 48.936 48.936 0 0 1 12.806 70.827 A 38.677 38.677 0 0 1 15.35 65.85 Q 17.7 62 21 58.85 A 49.698 49.698 0 0 1 21.444 58.431 Q 23.022 56.962 24.901 55.461 A 82.953 82.953 0 0 1 29 52.4 Q 30 55.3 32.1 57.75 A 18.125 18.125 0 0 0 32.298 57.977 A 15.915 15.915 0 0 0 36.9 61.6 Q 38.4 60.1 39.65 58.4 Q 40.627 57.072 40.901 56.415 A 1.473 1.473 0 0 0 41 56.1 A 6.212 6.212 0 0 1 40.79 55.713 Q 39.7 53.529 39.7 49.5 A 24.944 24.944 0 0 1 39.876 46.553 A 28.073 28.073 0 0 1 41.5 40 Q 41.156 39.45 40.434 39.065 A 5.133 5.133 0 0 0 39.7 38.75 Q 38.4 38.3 37 38.3 Q 35.992 38.3 35.391 38.526 A 1.683 1.683 0 0 0 34.9 38.8 A 81.965 81.965 0 0 1 33.991 40.134 A 73.328 73.328 0 0 1 27.15 48.6 Q 23 53 17.6 57.8 Q 18.912 53.8 20.205 50.698 A 54.609 54.609 0 0 1 21.75 47.3 A 41.2 41.2 0 0 1 22.678 45.549 A 35.634 35.634 0 0 1 26.5 40 Q 26.123 39.56 25.548 39.1 A 12.207 12.207 0 0 0 24.8 38.55 A 18.778 18.778 0 0 0 23.78 37.903 A 23.954 23.954 0 0 0 22.3 37.1 Q 20.9 36.4 19.4 35.9 A 18.693 18.693 0 0 0 18.472 35.617 A 15.766 15.766 0 0 0 16.5 35.2 Q 15.3 36.4 14.3 38.15 Q 13.612 39.353 12.783 41.194 A 75.626 75.626 0 0 0 12 43 Q 10.2 47.3 8.3 52.7 Q 6.4 58.1 4.7 63.45 A 237.316 237.316 0 0 0 3.488 67.378 A 194.482 194.482 0 0 0 1.75 73.55 Z M 237.3 89 Q 239.7 88 241.85 86.1 Q 244 84.2 245.6 81.8 Q 247.2 79.4 248.15 76.7 A 16.702 16.702 0 0 0 248.998 73.117 A 14.592 14.592 0 0 0 249.1 71.4 Q 247.1 71.7 244.7 73.25 Q 242.3 74.8 240.2 76.95 A 26.466 26.466 0 0 0 237.745 79.836 A 22.505 22.505 0 0 0 236.7 81.4 Q 235.814 82.855 235.489 84.07 A 5.15 5.15 0 0 0 235.3 85.4 A 4.077 4.077 0 0 0 236.724 88.543 A 5.928 5.928 0 0 0 237.3 89 Z"></path>
	</g>
</svg>