<svg height='100px' width='100px'  fill="#000000" xmlns="http://www.w3.org/2000/svg" xmlns:xlink="http://www.w3.org/1999/xlink" version="1.1" x="0px" y="0px" viewBox="0 0 100 100" enable-background="new 0 0 100 100" xml:space="preserve"><g><path fill="#000000" d="M75.369,65.211c-0.074-0.422-0.181-0.811-0.228-1.147c-0.005-0.036-0.011-0.092-0.016-0.14l-0.005-0.037   c0.002,0.008,0-0.015,0-0.02l-0.005-0.06c-0.002-0.079-0.001-0.162,0.005-0.25c0.01-0.176,0.032-0.368,0.051-0.58   c0.017-0.214,0.03-0.436,0.005-0.697c-0.023-0.231-0.081-0.47-0.155-0.685c-0.307-0.87-0.84-1.521-1.307-2.123   c-0.481-0.614-0.992-1.194-1.543-1.702c-0.556-0.523-1.16-0.919-1.656-1.286c-0.125-0.093-0.243-0.185-0.355-0.276l-0.158-0.136   l-0.156-0.146c-0.202-0.195-0.386-0.396-0.552-0.597c-0.667-0.806-1.04-1.595-1.241-2.148c-0.202-0.56-0.253-0.888-0.255-0.887   c0.005,0-0.1-0.366-0.12-1.016c-0.017-0.642,0.084-1.594,0.674-2.539l-0.741-0.674c-1.354,1.028-3.009,2.322-4.942,3.385   c-0.965,0.527-2.005,0.988-3.087,1.304c-1.079,0.313-2.209,0.476-3.307,0.468c-1.097-0.009-2.16-0.192-3.096-0.542   c-0.938-0.348-1.743-0.858-2.363-1.435c-0.62-0.573-1.026-1.212-1.258-1.798c-0.236-0.588-0.314-1.116-0.348-1.501   c-0.079-0.976,0.058-1.875,0.236-2.697c0.185-0.824,0.423-1.58,0.677-2.313c0.51-1.466,1.097-2.837,1.757-4.488   c-0.114,0.181-0.22,0.349-0.33,0.523l0.944-2.469c0.11-0.142,0.225-0.277,0.323-0.433c0.139-0.219,0.241-0.458,0.329-0.682   l0.243-0.661c0.039-0.104,0.08-0.208,0.124-0.306l0.145-0.303c0.4-0.84,0.826-1.721,1.345-2.873l0.609-1.371   c0.067-0.153,0.127-0.289,0.2-0.434c0.073-0.148,0.154-0.302,0.241-0.464c0.175-0.323,0.376-0.675,0.57-1.071   c0.046-0.096,0.1-0.208,0.142-0.306c0.05-0.114,0.09-0.215,0.132-0.321c0.081-0.206,0.153-0.404,0.238-0.577   c0.042-0.086,0.086-0.17,0.135-0.247c0.025-0.038,0.051-0.076,0.077-0.111l0.101-0.136c0.137-0.178,0.282-0.383,0.42-0.58   c0.551-0.789,1.041-1.591,1.631-2.274c1.172-1.376,2.647-2.371,3.754-3.066c1.124-0.697,1.861-1.135,1.859-1.135l0.869-0.515   c0.288-0.169,0.624-0.404,0.972-0.644c0.352-0.238,0.737-0.491,1.148-0.643l0.921-0.338l-0.799-0.557   c-0.785-0.546-1.47-1.491-1.979-2.588c-0.514-1.094-0.905-2.342-1.257-3.497c-0.163-0.572-0.302-1.142-0.412-1.681   c-0.056-0.27-0.104-0.533-0.15-0.787c-0.044-0.244-0.074-0.49-0.123-0.749c-0.046-0.256-0.111-0.514-0.216-0.763   c-0.055-0.124-0.115-0.246-0.196-0.36c-0.041-0.062-0.076-0.104-0.135-0.173c-0.019-0.022-0.095-0.102-0.144-0.142   c-0.216-0.19-0.482-0.292-0.703-0.325c-0.223-0.036-0.406-0.021-0.554,0c-0.405,0.063-0.72,0.205-1,0.35   c-0.279,0.147-0.521,0.308-0.743,0.469C60.389,6.37,60.187,6.535,60,6.69c-0.169,0.139-0.389,0.302-0.573,0.493   c-0.095,0.097-0.188,0.203-0.272,0.343c-0.041,0.069-0.081,0.149-0.106,0.25c-0.026,0.098-0.034,0.227,0.005,0.346   c0.091,0.275,0.332,0.363,0.474,0.387c0.154,0.029,0.285,0.02,0.413,0.009c0.51-0.055,0.973-0.222,1.482-0.381   c-0.534,0-1.033,0.021-1.471-0.05c-0.106-0.018-0.211-0.042-0.282-0.079c-0.024-0.011-0.032-0.022-0.042-0.033   c0.004,0,0.002,0,0.007,0c0.03,0.003,0.013,0.001,0.024-0.005l0.052-0.058c0.052-0.051,0.125-0.111,0.206-0.167   c0.17-0.121,0.353-0.215,0.584-0.358l0.632-0.393c0.213-0.127,0.436-0.253,0.667-0.363c0.231-0.108,0.477-0.202,0.699-0.233   c0.168-0.022,0.332-0.014,0.448,0.092c0.135,0.107,0.278,0.417,0.352,0.853l0.119,0.74c0.047,0.263,0.099,0.536,0.156,0.816   c0.116,0.563,0.256,1.151,0.432,1.761c0.177,0.603,0.374,1.206,0.584,1.82c0.213,0.613,0.449,1.23,0.729,1.827   c0.282,0.595,0.609,1.168,0.998,1.681c0.21,0.28,0.441,0.535,0.685,0.77c-0.229,0.134-0.435,0.272-0.621,0.397   c-0.369,0.254-0.661,0.46-0.923,0.614l-0.866,0.515c-0.001,0-0.74,0.44-1.879,1.143c-1.136,0.715-2.7,1.757-3.991,3.267   l-0.237,0.286c-0.081,0.102-0.155,0.199-0.225,0.292c-0.151,0.205-0.292,0.399-0.431,0.601l-0.799,1.174   c-0.132,0.188-0.257,0.362-0.399,0.55l-0.105,0.143c-0.043,0.056-0.081,0.113-0.118,0.171c-0.074,0.116-0.137,0.233-0.192,0.349   c-0.112,0.231-0.191,0.451-0.271,0.649l-0.113,0.279c-0.043,0.099-0.081,0.178-0.125,0.271c-0.174,0.355-0.369,0.697-0.551,1.034   c-0.091,0.168-0.179,0.334-0.26,0.5c-0.081,0.167-0.157,0.336-0.218,0.476l-0.602,1.366c-0.174,0.394-0.324,0.756-0.464,1.107   c-0.444-0.921-1.258-2.072-1.257-2.715c0.001-0.881,0.223-1.669,0.506-2.5c0.173-0.507,0.306-1.026,0.462-1.529   c0.135-0.431,0.424-0.809,0.575-1.224c0.191-0.52,0.429-1.022,0.633-1.548c0.118-0.303,0.363-0.772,0.345-1.096   c-0.253,0.293-0.323,0.636-0.487,0.974c-0.213,0.437-0.547,0.814-0.785,1.237c-0.405,0.716-0.919,1.519-1.507,2.105   c-0.506,0.504-1.382,0.882-2.069,1.057c-0.377,0.095-0.881,0.268-1.163-0.074c-0.245-0.298-0.217-0.896-0.168-1.246   c-0.348,0.246-0.19,0.699-0.744,0.736c-0.695,0.988-1.154,1.922-0.726,3.128c0.462,1.301,1.369,2.385,1.646,3.764   c0.285,1.426-0.144,2.834-0.579,4.183c-0.516,1.599-1.038,3.201-1.642,4.769c-1.479,3.832-3.398,7.771-5.821,11.096   c-2.283,3.133-5.439,5.41-8.04,8.25c-2.837,3.099-5.912,5.765-9.752,7.531c2.249,1.379,2.454,3.926,4.037,6.067   c1.048,1.419,2.493,3.941,4.059,5.827c-0.297-0.203-0.589-0.413-0.871-0.636c-0.627-0.497-1.214-1.038-1.745-1.623   c-0.522-0.578-1.022-1.229-1.516-1.852l-1.459-1.866l-0.718-0.897c-0.232-0.29-0.455-0.584-0.672-0.877   c-0.868-1.176-1.671-2.347-2.556-3.335c-0.23-0.255-0.433-0.474-0.673-0.707c-0.141-0.137-0.295-0.25-0.445-0.372   c0.225-0.108,0.45-0.217,0.692-0.35c0.635-0.346,1.322-0.776,2.057-1.25c2.973-1.867,6.845-4.685,10.525-8.056   c1.843-1.681,3.654-3.483,5.317-5.328c1.664-1.853,3.137-3.802,4.258-5.742c0.28-0.484,0.541-0.967,0.778-1.445   c0.24-0.478,0.452-0.955,0.651-1.399l1.116-2.508c0.336-0.769,0.636-1.478,0.883-2.086c0.259-0.634,0.435-1.187,0.564-1.631   c0.509-1.781,0.715-3.388,0.858-4.864l0.024-0.278c0.009-0.106,0.013-0.211,0.012-0.317c-0.004-0.211-0.029-0.419-0.072-0.618   c-0.087-0.401-0.242-0.757-0.404-1.078c-0.329-0.64-0.674-1.175-0.832-1.753l-0.046-0.171l-0.138-0.062l-0.288-0.131   c-0.089-0.212-0.184-0.404-0.27-0.591c-0.106-0.229-0.203-0.455-0.249-0.673c-0.022-0.107-0.031-0.213-0.021-0.309   c0.005-0.044,0.018-0.101,0.027-0.131c0.004-0.015,0.029-0.068,0.032-0.074l0.042-0.08c0.116-0.209,0.272-0.406,0.448-0.601   c0.358-0.392,0.747-0.794,1.079-1.261c0.343-0.459,0.541-1.012,0.972-1.433c-0.479,0.371-0.752,0.913-1.128,1.311   c-0.369,0.411-0.783,0.756-1.188,1.116c-0.204,0.184-0.405,0.387-0.57,0.626l-0.06,0.092c-0.031,0.05-0.035,0.057-0.057,0.102   c-0.044,0.09-0.065,0.164-0.085,0.247c-0.036,0.165-0.034,0.325-0.018,0.476c0.075,0.596,0.349,1.089,0.472,1.537l0.034,0.123   l0.135,0.074l0.236,0.129c0.16,0.657,0.477,1.241,0.719,1.795c0.131,0.3,0.239,0.595,0.287,0.891   c0.025,0.148,0.037,0.298,0.033,0.447c-0.002,0.076-0.008,0.151-0.017,0.226l-0.034,0.269c-0.192,1.441-0.423,2.998-0.91,4.68   c-0.123,0.42-0.291,0.941-0.531,1.528c-0.25,0.615-0.54,1.299-0.875,2.065l-1.114,2.498c-0.203,0.454-0.405,0.906-0.633,1.361   c-0.228,0.458-0.478,0.921-0.749,1.388c-2.141,3.752-5.76,7.496-9.378,10.827c-1.82,1.66-3.679,3.194-5.454,4.534   c-1.775,1.345-3.463,2.486-4.934,3.421c-0.733,0.472-1.396,0.888-1.995,1.214c-0.445,0.244-0.838,0.425-1.201,0.575   c-0.294-0.152-0.587-0.281-0.865-0.381c-0.125-0.046-0.249-0.087-0.37-0.126l-0.18-0.056l-0.089-0.026   c-0.039-0.011-0.078-0.022-0.118-0.03c-0.316-0.07-0.635-0.051-0.915,0.031c-0.565,0.167-0.959,0.572-1.159,0.973l-0.213,0.43   l0.417,0.241c0.491,0.285,0.982,0.422,1.313,0.446c0.331,0.027,0.5,0.002,0.5,0.006c0.002-0.003,0.161-0.005,0.471-0.062   c0.263-0.052,0.656-0.15,1.12-0.316c0.066,0.042,0.134,0.072,0.199,0.119c0.426,0.298,0.827,0.71,1.244,1.178   c0.827,0.922,1.61,2.06,2.496,3.263c0.222,0.3,0.452,0.603,0.694,0.905l0.717,0.896l1.455,1.861   c0.503,0.633,0.99,1.271,1.564,1.909c0.57,0.628,1.198,1.208,1.866,1.736c0.668,0.529,1.379,1.005,2.111,1.432   c0.367,0.213,0.738,0.413,1.114,0.602l1.107,0.55c0.377,0.182,0.766,0.355,1.181,0.496c0.414,0.136,0.854,0.245,1.332,0.252   c0.237,0.004,0.482-0.02,0.725-0.083c0.118-0.031,0.247-0.077,0.349-0.121c0.089-0.037,0.2-0.088,0.291-0.131   c0.379-0.183,0.731-0.391,1.068-0.614c0.637-0.431,1.215-0.906,1.719-1.49c0.52,0.589,1.643,1.865,2.559,2.937l1.303,1.812   c-0.001,0,0.615,0.863,1.238,1.838c0.631,0.972,1.229,2.072,1.414,2.444c0.235,0.459,1.59,2.156,2.598,3.308   c0.227,0.315,0.494,0.6,0.812,0.878c0.077,0.075,0.147,0.141,0.197,0.179c-0.266-1.001-0.281-1.646-0.841-2.76   c-0.084-0.16-0.209-0.369-0.35-0.617c-0.068-0.124-0.141-0.257-0.203-0.394c-0.03-0.068-0.06-0.138-0.082-0.206   c-0.027-0.075-0.036-0.117-0.062-0.225c-0.037-0.164-0.068-0.358-0.109-0.576c-0.037-0.215-0.107-0.472-0.164-0.668   c-0.113-0.405-0.215-0.837-0.308-1.261l-0.479-2.29l-0.091-0.41l-0.054-0.294l-0.044-0.268c-0.006-0.001-0.041-0.384-0.185-1.042   c-0.036-0.159-0.094-0.359-0.152-0.528l-0.087-0.263l-0.077-0.26c-0.102-0.361-0.194-0.767-0.268-1.183   c-0.079-0.421-0.115-0.84-0.193-1.308l-0.146-0.85c-0.127-1.221-0.223-2.792-0.052-3.861c0.646-0.118,1.25-0.138,1.788-0.099   c0.56,0.173,1.111,0.32,1.648,0.425c0.347,0.068,0.688,0.121,1.023,0.164c0.168,0.021,0.335,0.039,0.5,0.056l0.124,0.011   l0.062,0.006h0.005h0.004l0.002,0.001c-0.002-0.001,0.001,0,0.002,0l0.021,0.002l0.237,0.033c1.257,0.171,2.437,0.315,3.591,0.443   c2.021,0.224,3.993,0.398,6.208,0.568c-0.059,0.591-0.1,1.197-0.11,1.844c0.13-0.648,0.279-1.243,0.437-1.818   c0.21,0.016,0.409,0.032,0.624,0.048c-0.208-0.04-0.4-0.077-0.604-0.117c0.11-0.399,0.224-0.795,0.346-1.177   c0.304-0.94,0.642-1.849,1.052-2.806c0.267-0.491,0.565-0.992,0.959-1.366c0.396-0.379,0.87-0.556,1.483-0.439   c0.062,0.01,0.109,0.022,0.179,0.038l0.239,0.068c0.189,0.047,0.396,0.127,0.751,0.112c0.177-0.01,0.373-0.076,0.514-0.155   c0.145-0.078,0.252-0.16,0.357-0.239c0.216-0.168,0.363-0.292,0.563-0.407c0.39-0.229,0.87-0.372,1.436-0.4   c0.292-0.019,0.553,0,0.921,0.021c0.181,0.007,0.382,0.008,0.603-0.024c0.222-0.032,0.467-0.111,0.683-0.249   c0.051-0.032,0.106-0.071,0.164-0.119l0.061-0.052l0.058-0.054c0.076-0.071,0.147-0.146,0.214-0.22   c0.136-0.149,0.256-0.303,0.372-0.456c0.229-0.305,0.436-0.613,0.648-0.875c0.209-0.256,0.499-0.543,0.757-0.873   c0.261-0.33,0.517-0.735,0.637-1.214c0.015-0.06,0.027-0.12,0.039-0.18c0.012-0.067,0.021-0.136,0.025-0.178   c0.015-0.132,0.018-0.241,0.017-0.362C75.437,65.646,75.406,65.423,75.369,65.211z M59.611,7.972   c-0.003,0.001-0.005,0.003-0.01,0.004c0,0,0.007,0,0.008,0c-0.002,0.006-0.003,0.013-0.007,0.019   c-0.003,0.004-0.006,0.009-0.008,0.013l-0.012-0.005l-0.025-0.009l-0.005-0.002L59.55,7.99l-0.002-0.001   c-0.01,0.002,0.033-0.01,0.064-0.019C59.612,7.971,59.611,7.971,59.611,7.972z M59.619,7.969   C59.619,7.968,59.618,7.968,59.619,7.969c0.001-0.001,0.002-0.002,0.004-0.002C59.622,7.967,59.621,7.968,59.619,7.969z    M17.733,68.391c0.001-0.001-0.12,0.014-0.333-0.003c-0.076-0.007-0.166-0.024-0.265-0.049c0.034-0.016,0.059-0.043,0.096-0.054   c0.126-0.037,0.267-0.045,0.406-0.014l0.053,0.014l0.082,0.024l0.164,0.051c0.004,0.001,0.009,0.003,0.013,0.005   C17.821,68.383,17.731,68.39,17.733,68.391z M59.866,53.738c1.171-0.342,2.276-0.833,3.292-1.389   c1.219-0.672,2.296-1.411,3.268-2.123c-1.602,1.483-3.626,2.834-5.583,3.45c-1.264,0.397-2.494,0.569-3.734,0.544   C58.037,54.163,58.967,54,59.866,53.738z M40.417,81.833c0.005,0.024,0.082-0.023,0.172-0.086c0.002,0.003,0.003,0.004,0.006,0.007   C40.493,81.827,40.376,81.91,40.417,81.833z M46.784,84.406c0.122,0.553,0.167,0.969,0.172,0.965L47,85.651l0.062,0.34l0.09,0.412   l0.475,2.292c0.096,0.437,0.199,0.881,0.321,1.318c0.036,0.126,0.064,0.232,0.09,0.336c-0.192-0.405-0.81-1.541-1.454-2.527   c-0.642-1-1.27-1.871-1.269-1.872c0.002,0-0.618-0.877-1.306-1.825c-0.34-0.472-0.702-0.979-1.017-1.396l-0.686-0.924   c-0.089-0.121-0.173-0.219-0.258-0.316c-0.17-0.3-0.533-1.133-0.533-1.133s0.288-1.189,1.56-2.476   c0.783-0.742,1.584-1.24,2.363-1.559c0.045,1.013,0.185,3.048,0.614,4.926c0.039,0.285,0.078,0.581,0.132,0.869   c0.08,0.449,0.178,0.884,0.293,1.287l0.089,0.3l0.088,0.263C46.716,84.139,46.75,84.263,46.784,84.406z M74.405,66.124   c-0.005,0.057-0.011,0.085-0.016,0.116c-0.007,0.035-0.016,0.072-0.023,0.107c-0.071,0.287-0.233,0.562-0.45,0.835   c-0.218,0.28-0.474,0.531-0.742,0.856c-0.262,0.323-0.468,0.632-0.677,0.91c-0.104,0.139-0.207,0.269-0.312,0.384   c-0.054,0.058-0.105,0.113-0.159,0.162l-0.039,0.037l-0.04,0.035l-0.049,0.033c-0.153,0.102-0.386,0.129-0.694,0.114   c-0.297-0.017-0.684-0.044-1.02-0.021c-0.688,0.033-1.363,0.224-1.894,0.539c-0.264,0.151-0.507,0.354-0.669,0.48   c-0.087,0.066-0.167,0.123-0.222,0.152c-0.057,0.028-0.072,0.032-0.105,0.035c-0.066,0.009-0.242-0.028-0.396-0.073l-0.249-0.071   c-0.087-0.02-0.188-0.046-0.27-0.058c-0.431-0.08-0.898-0.063-1.316,0.08c-0.42,0.141-0.765,0.394-1.03,0.663   c-0.526,0.549-0.813,1.14-1.066,1.688l-0.014,0.029l-0.002,0.007c-0.353,1.031-0.596,2.013-0.765,3.019   c-0.067,0.404-0.114,0.819-0.158,1.239c-2.181-0.422-4.119-0.799-6.116-1.17l-3.556-0.643l-0.235-0.041l-0.029-0.004l-0.056-0.009   l-0.058-0.007l-0.116-0.015l-0.47-0.067c-0.315-0.05-0.636-0.108-0.96-0.18l-0.599-0.13c-7.083-1.299-9.511,5.078-9.511,5.078   c-0.126,0.331-0.25,0.618-0.411,0.82c-0.41,0.499-0.974,0.966-1.575,1.367c-0.303,0.2-0.62,0.389-0.946,0.545   c-0.086,0.041-0.153,0.072-0.246,0.11c-0.079,0.034-0.136,0.053-0.209,0.073c-0.14,0.036-0.292,0.052-0.453,0.05   c-0.458-0.008-0.952-0.159-1.452-0.365c1.813-0.777,3.53-3.936,4.448-5.301c1.148-1.702,2.131-3.381,3.903-4.516   c2.484-1.591,4.526,0.649,7.23,1.689c3.872,1.486,6.754,1.351,5.745-0.01c-0.804-1.083,2.711,0.665,3.898-0.127   c1.051-0.7,1.632-1.896,2.312-2.919c0.308-0.461,0.647-0.87,1.023-1.236c0.866-0.56,1.769-1.061,2.674-1.557   c2.238-0.784,5.078-1.306,6.224-3.452c0.607-1.139,0.038-2.208-0.751-3.077c-1.057-1.16-2.299-2.116-3.224-3.399   c-0.991-1.374-1.31-3.26-1.328-5.176c0.246,0.616,0.646,1.405,1.319,2.222c0.189,0.227,0.398,0.456,0.63,0.681l0.178,0.166   c0.065,0.059,0.13,0.113,0.194,0.166c0.129,0.106,0.262,0.21,0.396,0.311c0.54,0.398,1.086,0.759,1.572,1.218   c0.497,0.46,0.974,0.998,1.432,1.583c0.467,0.593,0.925,1.188,1.143,1.822c0.054,0.158,0.091,0.308,0.106,0.471   c0.013,0.135,0.01,0.312-0.008,0.494c-0.016,0.186-0.041,0.39-0.054,0.611c-0.006,0.111-0.008,0.229-0.003,0.348l0.005,0.091   l0.008,0.092l0.019,0.157c0.063,0.455,0.172,0.836,0.234,1.197c0.031,0.18,0.053,0.35,0.054,0.51   C74.416,65.974,74.413,66.06,74.405,66.124z"></path><path fill="#000000" d="M49.596,19.347c0.175,0.378,0.385,0.672,0.565,0.89c0.003,0.006,0.005,0.012,0.009,0.018   c0.134,0.226,0.322,0.438,0.507,0.585c0.184,0.148,0.352,0.236,0.436,0.277c0.128,0.058,0.243,0.063,0.356,0.042   c0.341,0.098,0.683,0.121,1.076,0.099c-0.279-0.281-0.489-0.52-0.703-0.743c-0.019-0.02-0.038-0.039-0.057-0.058   c-0.06-0.116-0.12-0.197-0.216-0.248c-0.016-0.008-0.042-0.023-0.064-0.037c-0.112-0.111-0.229-0.227-0.358-0.357   c-0.034-0.035-0.077-0.08-0.124-0.134c-0.139-0.245-0.191-0.526-0.192-0.523c-0.001,0.001-0.063-0.306-0.061-0.681   c-0.004-0.372,0.046-0.796,0.06-0.938c0.025-0.263-0.124-0.438-0.406-0.718c-0.07,0.034-0.128,0.065-0.186,0.098   c0.053-0.427,0.164-0.824,0.272-1.128c0.724,0.035,1.264,0.276,1.809,0.877c0.531,0.587,0.854,1.357,1.385,1.925   c0.641,0.685,1.512-0.615,1.936-1.679c0.121-0.058,0.238-0.135,0.352-0.262c0.084-0.102,0.26-0.298,0.417-0.638   c0.074-0.169,0.145-0.384,0.145-0.643c0.004-0.257-0.096-0.543-0.246-0.741c-0.153-0.204-0.315-0.328-0.486-0.436   c-0.136-0.087-0.354-0.188-0.562-0.207c-0.216-0.027-0.426,0.035-0.547,0.102c-0.01,0.005-0.013,0.009-0.021,0.014   c-0.007-0.048-0.013-0.095-0.021-0.146c-0.009-0.05-0.021-0.104-0.035-0.163c-0.011-0.047-0.061-0.184-0.103-0.242   c-0.053-0.086-0.118-0.173-0.201-0.252c-0.081-0.079-0.187-0.147-0.282-0.183c-0.144-0.057-0.306-0.057-0.417-0.029   c-0.115,0.026-0.189,0.069-0.245,0.109c-0.113,0.08-0.163,0.155-0.206,0.229c-0.022,0.04-0.036,0.083-0.052,0.125   c-0.096,0.1-0.189,0.219-0.289,0.326c-0.038-0.067-0.063-0.133-0.116-0.201c-0.104-0.134-0.253-0.275-0.454-0.363   c-0.201-0.09-0.431-0.099-0.607-0.065c-0.174,0.031-0.311,0.091-0.431,0.152c-0.239,0.084-0.465,0.198-0.646,0.34   c-0.203,0.154-0.353,0.33-0.46,0.481c-0.106,0.153-0.17,0.285-0.212,0.375l-0.049,0.106c0.005-0.006-0.144,0.281-0.309,0.737   c-0.165,0.46-0.346,1.111-0.368,1.833c-0.013,0.358,0.014,0.731,0.088,1.088C49.344,18.719,49.46,19.05,49.596,19.347z    M55.179,15.009c0.005,0.001,0.004,0,0.01,0.003c0.011,0.003,0.024,0.012,0.039,0.019l0.065,0.04   c0.069,0.042,0.152,0.112,0.185,0.163c0.019,0.026,0.016,0.047,0.023,0.068c-0.108-0.04-0.229-0.058-0.359-0.065   C55.142,15.121,55.164,15.041,55.179,15.009z"></path><path fill="#000000" d="M51.966,45.766c0.372,0.329,0.593,0.527,1.075,0.538c0.063,0.002,0.163,0.001,0.286-0.001   c0.13-0.007,0.275-0.015,0.433-0.036c0.328-0.038,0.692-0.113,1.035-0.209c0.688-0.188,1.267-0.449,1.267-0.447   c0-0.001,0.312-0.127,0.716-0.328c0.404-0.198,0.896-0.474,1.284-0.716l0.593-0.373l-0.518-0.438   c-0.193-0.165-0.348-0.191-0.463-0.218c-0.116-0.022-0.209-0.027-0.29-0.029c-0.162-0.002-0.278,0.009-0.353,0.016   c-0.502,0.061-0.72,0.303-1.013,0.697c0.108,0.059,0.206,0.109,0.298,0.152c-0.369,0.184-0.65,0.301-0.65,0.301   c0-0.001-0.535,0.234-1.141,0.398c-0.609,0.176-1.253,0.225-1.482,0.216C52.629,45.293,52.343,45.445,51.966,45.766z"></path><path fill="#000000" d="M60.411,10.585c0.447,0.225,1.599,0.669,1.971,0.227c0.061-0.014,0.1,0.008,0.12,0.064   c-0.012-0.553-0.003-1.108,0-1.661c0.001-0.425-0.129-0.705-0.599-0.634c-0.312,0.047-0.597,0.223-0.918,0.262   c-0.252,0.029-0.504,0.002-0.755,0.001c-0.541,0-0.996-0.168-1.122,0.486h0.322C58.835,9.661,60.229,10.495,60.411,10.585z"></path><path fill="#000000" d="M56.528,43.351l0.482-0.323c-0.835-0.255-1.604-0.621-2.398-0.979c-0.773-0.348-1.18-0.295-1.357,0.602   c-0.126,0.633-0.195,1.62,0.702,1.489C54.823,44.013,55.662,43.54,56.528,43.351z"></path><path fill="#000000" d="M67.983,82.043c0.914-0.777,1.595-1.548,2.315-2.509L68,79.75L67.983,82.043z"></path></g></svg>