<?xml version="1.0" encoding="UTF-8" standalone="no"?>
<svg
   xmlns:dc="http://purl.org/dc/elements/1.1/"
   xmlns:cc="http://creativecommons.org/ns#"
   xmlns:rdf="http://www.w3.org/1999/02/22-rdf-syntax-ns#"
   xmlns:svg="http://www.w3.org/2000/svg"
   xmlns="http://www.w3.org/2000/svg"
   xmlns:sodipodi="http://sodipodi.sourceforge.net/DTD/sodipodi-0.dtd"
   xmlns:inkscape="http://www.inkscape.org/namespaces/inkscape"
   viewBox="0 0 338.667 169.3328"
   height="640"
   width="1280"
   version="1.1"
   id="svg12"
   sodipodi:docname="rakkas-cover-image.svg"
   inkscape:version="0.92.5 (2060ec1f9f, 2020-04-08)"
   inkscape:export-filename="/home/cyco/Documents/github/rakkasjs/shared-assets/rakkas-cover-image.png"
   inkscape:export-xdpi="96"
   inkscape:export-ydpi="96">
  <metadata
     id="metadata18">
    <rdf:RDF>
      <cc:Work
         rdf:about="">
        <dc:format>image/svg+xml</dc:format>
        <dc:type
           rdf:resource="http://purl.org/dc/dcmitype/StillImage" />
        <dc:title></dc:title>
      </cc:Work>
    </rdf:RDF>
  </metadata>
  <defs
     id="defs16" />
  <sodipodi:namedview
     pagecolor="#ffffff"
     bordercolor="#666666"
     borderopacity="1"
     objecttolerance="10"
     gridtolerance="10"
     guidetolerance="10"
     inkscape:pageopacity="0"
     inkscape:pageshadow="2"
     inkscape:window-width="1920"
     inkscape:window-height="1023"
     id="namedview14"
     showgrid="false"
     inkscape:zoom="0.434375"
     inkscape:cx="690.31827"
     inkscape:cy="117.16453"
     inkscape:window-x="0"
     inkscape:window-y="0"
     inkscape:window-maximized="1"
     inkscape:current-layer="svg12" />
  <rect
     style="fill:#f9e6eb;fill-opacity:1;stroke:none;stroke-width:1.98400199;stroke-linecap:round;stroke-linejoin:miter;stroke-miterlimit:4;stroke-dasharray:none;stroke-opacity:1"
     id="rect851"
     width="338.66699"
     height="169.3335"
     x="0"
     y="-0.60946339" />
  <g
     id="g10"
     transform="matrix(0.79817988,0,0,0.79817988,32.525936,28.993685)"
     style="fill:#992244;stroke-width:1.34931993">
    <g
       id="g6"
       style="stroke-width:1.03861296">
      <path
         d="M 67.518,68.931 C 67.448,68.527 67.345,68.155 67.3,67.833 A 4.633,4.633 0 0 1 67.285,67.699 L 67.28,67.664 c 0.002,0.007 0,-0.015 0,-0.02 l -0.005,-0.057 a 2.552,2.552 0 0 1 0.005,-0.24 c 0.01,-0.168 0.03,-0.352 0.049,-0.555 0.016,-0.205 0.028,-0.417 0.005,-0.667 a 2.965,2.965 0 0 0 -0.149,-0.656 c -0.294,-0.833 -0.804,-1.457 -1.251,-2.033 a 13.71,13.71 0 0 0 -1.478,-1.63 c -0.532,-0.5 -1.11,-0.88 -1.586,-1.231 -0.12,-0.09 -0.232,-0.177 -0.34,-0.264 l -0.15,-0.13 -0.15,-0.14 a 6.92,6.92 0 0 1 -0.529,-0.572 7.012,7.012 0 0 1 -1.188,-2.057 c -0.194,-0.536 -0.242,-0.85 -0.244,-0.85 0.004,0 -0.096,-0.35 -0.115,-0.972 a 4.351,4.351 0 0 1 0.645,-2.432 l -0.71,-0.645 c -1.296,0.984 -2.88,2.224 -4.732,3.241 -0.924,0.505 -1.92,0.947 -2.956,1.25 -1.033,0.299 -2.115,0.455 -3.166,0.447 -1.05,-0.008 -2.069,-0.184 -2.965,-0.519 a 6.815,6.815 0 0 1 -2.263,-1.374 4.758,4.758 0 0 1 -1.204,-1.722 4.978,4.978 0 0 1 -0.334,-1.437 c -0.075,-0.934 0.056,-1.795 0.226,-2.582 0.178,-0.79 0.406,-1.513 0.649,-2.215 0.488,-1.404 1.05,-2.717 1.682,-4.298 l -0.316,0.501 0.904,-2.364 c 0.105,-0.136 0.216,-0.265 0.31,-0.415 0.133,-0.21 0.23,-0.438 0.314,-0.653 l 0.233,-0.633 c 0.037,-0.1 0.077,-0.199 0.119,-0.293 l 0.139,-0.29 c 0.383,-0.804 0.79,-1.648 1.288,-2.751 L 48.6,35.093 c 0.064,-0.146 0.121,-0.277 0.191,-0.415 0.07,-0.142 0.148,-0.29 0.231,-0.445 0.168,-0.31 0.36,-0.646 0.546,-1.025 0.044,-0.092 0.096,-0.2 0.136,-0.293 0.048,-0.11 0.086,-0.206 0.126,-0.308 0.078,-0.197 0.147,-0.387 0.228,-0.552 a 2.42,2.42 0 0 1 0.13,-0.237 c 0.023,-0.036 0.048,-0.073 0.073,-0.106 l 0.097,-0.13 c 0.131,-0.17 0.27,-0.367 0.402,-0.556 0.528,-0.755 0.997,-1.523 1.562,-2.177 1.122,-1.318 2.535,-2.27 3.595,-2.936 1.076,-0.667 1.782,-1.087 1.78,-1.087 l 0.832,-0.493 c 0.276,-0.162 0.597,-0.387 0.93,-0.617 0.338,-0.228 0.706,-0.47 1.1,-0.615 l 0.882,-0.324 -0.765,-0.533 c -0.752,-0.523 -1.408,-1.428 -1.895,-2.479 -0.493,-1.047 -0.867,-2.242 -1.204,-3.348 a 21.919,21.919 0 0 1 -0.395,-1.61 30,30 0 0 1 -0.143,-0.753 c -0.042,-0.234 -0.071,-0.47 -0.118,-0.718 a 3.431,3.431 0 0 0 -0.207,-0.73 1.947,1.947 0 0 0 -0.317,-0.51 1.345,1.345 0 0 0 -0.811,-0.447 1.711,1.711 0 0 0 -0.53,0 c -0.388,0.06 -0.69,0.195 -0.958,0.334 a 5.83,5.83 0 0 0 -0.711,0.45 c -0.213,0.155 -0.406,0.313 -0.585,0.461 -0.162,0.133 -0.373,0.29 -0.55,0.472 -0.09,0.093 -0.18,0.194 -0.26,0.328 a 0.866,0.866 0 0 0 -0.101,0.24 0.601,0.601 0 0 0 0.005,0.331 0.558,0.558 0 0 0 0.454,0.37 c 0.147,0.029 0.273,0.02 0.395,0.01 0.488,-0.053 0.932,-0.213 1.42,-0.365 -0.512,0 -0.99,0.02 -1.41,-0.048 a 0.987,0.987 0 0 1 -0.27,-0.076 c -0.022,-0.01 -0.03,-0.021 -0.04,-0.032 h 0.007 c 0.029,0.003 0.013,10e-4 0.023,-0.004 l 0.05,-0.056 c 0.05,-0.049 0.12,-0.106 0.197,-0.16 0.163,-0.116 0.338,-0.206 0.56,-0.343 l 0.605,-0.376 c 0.203,-0.122 0.417,-0.242 0.638,-0.348 0.221,-0.103 0.457,-0.193 0.67,-0.223 0.16,-0.02 0.317,-0.013 0.429,0.088 0.129,0.103 0.266,0.4 0.337,0.817 l 0.114,0.709 c 0.045,0.252 0.094,0.513 0.149,0.781 0.111,0.54 0.245,1.102 0.414,1.686 0.17,0.578 0.358,1.155 0.559,1.743 0.204,0.587 0.43,1.178 0.698,1.75 0.27,0.57 0.583,1.118 0.956,1.61 0.2,0.267 0.422,0.512 0.655,0.737 -0.219,0.128 -0.416,0.26 -0.594,0.38 -0.354,0.243 -0.633,0.44 -0.884,0.588 l -0.83,0.493 c 0,0 -0.708,0.421 -1.799,1.094 -1.087,0.685 -2.585,1.683 -3.821,3.129 l -0.227,0.274 c -0.078,0.097 -0.149,0.19 -0.216,0.28 -0.144,0.196 -0.28,0.381 -0.412,0.575 l -0.765,1.124 c -0.127,0.18 -0.246,0.347 -0.382,0.527 l -0.101,0.137 a 3.044,3.044 0 0 0 -0.297,0.498 c -0.107,0.22 -0.183,0.431 -0.26,0.62 l -0.108,0.268 c -0.04,0.095 -0.077,0.17 -0.12,0.26 -0.166,0.34 -0.353,0.667 -0.527,0.99 -0.087,0.16 -0.171,0.32 -0.249,0.478 -0.077,0.16 -0.15,0.322 -0.209,0.456 l -0.576,1.308 c -0.167,0.378 -0.31,0.724 -0.444,1.06 -0.425,-0.882 -1.205,-1.984 -1.204,-2.6 10e-4,-0.843 0.214,-1.598 0.485,-2.393 0.165,-0.486 0.293,-0.983 0.442,-1.464 0.13,-0.413 0.406,-0.775 0.55,-1.173 0.183,-0.497 0.411,-0.978 0.607,-1.482 0.113,-0.29 0.347,-0.74 0.33,-1.05 -0.242,0.281 -0.31,0.61 -0.466,0.933 -0.204,0.419 -0.524,0.78 -0.752,1.185 -0.388,0.685 -0.88,1.454 -1.443,2.016 -0.485,0.482 -1.323,0.844 -1.981,1.012 -0.361,0.09 -0.844,0.256 -1.114,-0.071 -0.234,-0.286 -0.208,-0.858 -0.16,-1.193 -0.334,0.235 -0.183,0.669 -0.713,0.704 -0.666,0.947 -1.105,1.84 -0.695,2.996 0.442,1.245 1.31,2.283 1.576,3.604 0.273,1.365 -0.138,2.714 -0.555,4.005 -0.494,1.532 -0.994,3.066 -1.572,4.567 -1.416,3.67 -3.254,7.441 -5.574,10.625 -2.186,3 -5.208,5.18 -7.699,7.9 -2.716,2.968 -5.66,5.52 -9.338,7.211 2.154,1.32 2.35,3.76 3.866,5.81 1.003,1.359 2.387,3.774 3.887,5.58 a 13.987,13.987 0 0 1 -2.505,-2.163 c -0.5,-0.554 -0.979,-1.177 -1.452,-1.774 L 19.808,78.072 19.12,77.213 c -0.222,-0.277 -0.435,-0.559 -0.643,-0.84 -0.831,-1.125 -1.6,-2.247 -2.448,-3.193 -0.22,-0.244 -0.414,-0.454 -0.644,-0.677 -0.135,-0.131 -0.283,-0.24 -0.426,-0.356 0.215,-0.103 0.43,-0.208 0.662,-0.335 a 32.125,32.125 0 0 0 1.97,-1.197 c 2.847,-1.788 6.555,-4.486 10.078,-7.714 a 74.387,74.387 0 0 0 5.092,-5.102 c 1.593,-1.775 3.004,-3.64 4.077,-5.498 0.268,-0.464 0.518,-0.926 0.745,-1.384 0.23,-0.458 0.433,-0.915 0.623,-1.34 l 1.07,-2.401 c 0.32,-0.737 0.608,-1.416 0.845,-1.998 a 15.51,15.51 0 0 0 0.54,-1.562 c 0.487,-1.705 0.684,-3.244 0.821,-4.657 l 0.023,-0.266 c 0.009,-0.102 0.013,-0.202 0.012,-0.304 a 3.086,3.086 0 0 0 -0.07,-0.592 4.317,4.317 0 0 0 -0.386,-1.032 C 40.746,36.152 40.416,35.64 40.264,35.086 l -0.044,-0.163 -0.132,-0.06 -0.276,-0.125 c -0.085,-0.203 -0.176,-0.387 -0.258,-0.566 a 3.14,3.14 0 0 1 -0.239,-0.644 0.987,0.987 0 0 1 -0.02,-0.296 0.844,0.844 0 0 1 0.026,-0.126 0.777,0.777 0 0 1 0.03,-0.07 l 0.04,-0.077 c 0.112,-0.2 0.261,-0.39 0.43,-0.576 0.343,-0.375 0.715,-0.76 1.033,-1.207 0.329,-0.44 0.518,-0.97 0.93,-1.372 -0.458,0.355 -0.72,0.874 -1.08,1.255 -0.353,0.393 -0.75,0.724 -1.137,1.069 -0.195,0.176 -0.388,0.37 -0.546,0.599 l -0.057,0.088 a 1.069,1.069 0 0 0 -0.136,0.334 1.416,1.416 0 0 0 -0.017,0.456 c 0.071,0.57 0.334,1.043 0.452,1.472 l 0.032,0.118 0.13,0.07 0.225,0.124 c 0.154,0.63 0.457,1.188 0.689,1.719 0.125,0.287 0.229,0.57 0.275,0.853 a 2.217,2.217 0 0 1 0.015,0.644 l -0.032,0.258 c -0.184,1.38 -0.406,2.87 -0.872,4.481 -0.118,0.403 -0.279,0.901 -0.508,1.464 -0.24,0.588 -0.517,1.243 -0.838,1.977 l -1.067,2.392 c -0.194,0.435 -0.388,0.867 -0.606,1.303 -0.218,0.439 -0.458,0.882 -0.717,1.33 -2.05,3.592 -5.516,7.177 -8.98,10.367 a 73.879,73.879 0 0 1 -5.223,4.341 70.052,70.052 0 0 1 -4.724,3.276 c -0.702,0.452 -1.337,0.85 -1.91,1.163 -0.427,0.233 -0.803,0.407 -1.15,0.55 a 6.933,6.933 0 0 0 -1.183,-0.485 l -0.173,-0.054 -0.085,-0.025 a 1.774,1.774 0 0 0 -0.99,0.001 c -0.54,0.16 -0.917,0.548 -1.109,0.932 l -0.204,0.412 0.4,0.23 c 0.47,0.273 0.94,0.405 1.257,0.428 0.317,0.025 0.478,0.001 0.478,0.005 0.002,-0.003 0.155,-0.005 0.451,-0.06 0.252,-0.049 0.629,-0.143 1.073,-0.302 0.063,0.04 0.128,0.07 0.19,0.114 0.408,0.286 0.792,0.68 1.192,1.128 0.792,0.883 1.541,1.973 2.39,3.125 0.212,0.287 0.433,0.577 0.664,0.866 l 0.687,0.858 1.393,1.782 c 0.482,0.607 0.948,1.217 1.498,1.828 a 14.838,14.838 0 0 0 1.787,1.663 c 0.64,0.506 1.32,0.962 2.021,1.37 0.351,0.205 0.707,0.396 1.067,0.577 l 1.06,0.527 c 0.36,0.174 0.733,0.34 1.13,0.475 0.397,0.13 0.818,0.235 1.276,0.241 0.227,0.004 0.462,-0.019 0.694,-0.08 0.113,-0.029 0.237,-0.073 0.334,-0.115 a 6.99,6.99 0 0 0 0.28,-0.125 8.72,8.72 0 0 0 1.022,-0.588 c 0.61,-0.413 1.163,-0.868 1.646,-1.427 a 254.92,254.92 0 0 1 2.45,2.812 l 1.248,1.735 c -10e-4,0 0.589,0.827 1.185,1.76 0.605,0.931 1.177,1.984 1.354,2.34 0.225,0.44 1.523,2.065 2.488,3.168 0.218,0.302 0.473,0.575 0.778,0.84 0.073,0.073 0.14,0.136 0.188,0.172 -0.254,-0.958 -0.269,-1.576 -0.805,-2.643 -0.08,-0.153 -0.2,-0.353 -0.335,-0.59 -0.065,-0.12 -0.135,-0.246 -0.194,-0.378 A 2.112,2.112 0 0 1 42.526,93.827 C 42.5,93.755 42.492,93.715 42.466,93.612 42.431,93.455 42.402,93.269 42.362,93.06 A 6.307,6.307 0 0 0 42.205,92.42 22.471,22.471 0 0 1 41.91,91.213 L 41.452,89.02 41.364,88.628 41.313,88.346 41.271,88.089 c -0.006,0 -0.04,-0.367 -0.178,-0.997 A 5.245,5.245 0 0 0 40.948,86.586 L 40.865,86.334 40.791,86.085 A 11.898,11.898 0 0 1 40.534,84.952 C 40.459,84.549 40.424,84.148 40.349,83.7 l -0.14,-0.814 c -0.121,-1.17 -0.213,-2.674 -0.05,-3.697 a 6.799,6.799 0 0 1 1.713,-0.095 c 0.536,0.166 1.064,0.306 1.578,0.407 a 15.04,15.04 0 0 0 1.458,0.21 l 0.12,0.011 0.059,0.006 h 0.012 l 0.02,0.003 0.227,0.031 c 1.204,0.164 2.334,0.302 3.439,0.425 1.935,0.214 3.823,0.38 5.944,0.544 a 20.847,20.847 0 0 0 -0.105,1.765 c 0.124,-0.62 0.267,-1.19 0.418,-1.74 l 0.598,0.045 c -0.2,-0.038 -0.383,-0.073 -0.579,-0.112 0.106,-0.382 0.215,-0.76 0.332,-1.127 0.29,-0.9 0.615,-1.77 1.007,-2.687 0.256,-0.47 0.541,-0.95 0.918,-1.308 0.38,-0.363 0.833,-0.532 1.42,-0.42 0.06,0.01 0.105,0.021 0.172,0.036 l 0.229,0.065 c 0.18,0.045 0.379,0.122 0.719,0.108 0.17,-0.01 0.357,-0.073 0.492,-0.149 0.139,-0.074 0.241,-0.153 0.342,-0.229 0.207,-0.16 0.347,-0.28 0.539,-0.39 0.373,-0.219 0.833,-0.355 1.375,-0.382 0.28,-0.019 0.53,0 0.882,0.02 0.173,0.007 0.366,0.007 0.577,-0.023 a 1.676,1.676 0 0 0 0.811,-0.353 l 0.059,-0.05 0.055,-0.051 c 0.073,-0.068 0.141,-0.14 0.205,-0.21 0.13,-0.143 0.245,-0.29 0.357,-0.437 0.219,-0.292 0.417,-0.587 0.62,-0.838 0.2,-0.245 0.478,-0.52 0.725,-0.836 0.25,-0.316 0.495,-0.704 0.61,-1.163 a 2.294,2.294 0 0 0 0.061,-0.343 c 0.015,-0.126 0.017,-0.23 0.016,-0.346 A 3.803,3.803 0 0 0 67.518,68.931 Z M 52.43,14.121 52.42,14.125 h 0.008 c -0.002,0.006 -0.003,0.013 -0.007,0.019 a 0.087,0.087 0 0 0 -0.007,0.012 L 52.402,14.151 52.378,14.143 52.374,14.141 52.372,14.139 52.37,14.138 52.431,14.12 v 0.002 z m 0.008,-0.002 c 0,-10e-4 -0.001,-10e-4 0,0 l 0.004,-0.002 z m -40.11,57.857 c 0.001,0 -0.115,0.014 -0.319,-0.002 a 1.708,1.708 0 0 1 -0.253,-0.047 c 0.032,-0.016 0.056,-0.041 0.092,-0.052 a 0.782,0.782 0 0 1 0.388,-0.013 l 0.051,0.013 0.079,0.023 0.157,0.049 a 0.066,0.066 0 0 1 0.012,0.005 c -0.122,0.017 -0.209,0.024 -0.207,0.024 z m 40.345,-14.03 a 15.873,15.873 0 0 0 3.153,-1.33 c 1.167,-0.644 2.198,-1.352 3.129,-2.034 -1.534,1.42 -3.472,2.714 -5.346,3.304 -1.21,0.38 -2.388,0.545 -3.576,0.52 a 12.12,12.12 0 0 0 2.64,-0.46 z M 34.05,84.847 c 0.004,0.023 0.078,-0.022 0.164,-0.082 l 0.006,0.006 c -0.098,0.07 -0.21,0.15 -0.17,0.076 z m 6.096,2.464 c 0.117,0.53 0.16,0.928 0.165,0.924 l 0.042,0.268 0.06,0.326 0.086,0.394 0.455,2.195 c 0.092,0.418 0.19,0.843 0.307,1.262 0.035,0.12 0.061,0.222 0.086,0.322 a 25.678,25.678 0 0 0 -1.392,-2.42 C 39.34,89.624 38.739,88.79 38.74,88.789 c 0.002,0 -0.592,-0.84 -1.25,-1.747 -0.326,-0.452 -0.673,-0.938 -0.975,-1.337 L 35.858,84.82 a 4.393,4.393 0 0 0 -0.247,-0.302 c -0.162,-0.288 -0.51,-1.085 -0.51,-1.085 0,0 0.276,-1.139 1.494,-2.371 0.75,-0.71 1.517,-1.188 2.263,-1.493 0.043,0.97 0.177,2.919 0.588,4.717 0.037,0.273 0.074,0.556 0.126,0.832 0.077,0.43 0.17,0.847 0.28,1.232 l 0.086,0.288 0.084,0.252 c 0.06,0.165 0.092,0.284 0.124,0.42 z m 26.45,-17.506 c -0.006,0.054 -0.011,0.081 -0.016,0.11 l -0.022,0.103 c -0.068,0.275 -0.223,0.538 -0.431,0.8 -0.209,0.268 -0.454,0.508 -0.71,0.82 -0.251,0.309 -0.449,0.605 -0.649,0.87 a 4.91,4.91 0 0 1 -0.299,0.369 c -0.051,0.055 -0.1,0.108 -0.152,0.155 l -0.037,0.035 -0.038,0.034 -0.047,0.031 c -0.147,0.098 -0.37,0.124 -0.665,0.11 -0.284,-0.017 -0.655,-0.043 -0.977,-0.02 -0.658,0.03 -1.305,0.214 -1.813,0.515 -0.253,0.145 -0.486,0.34 -0.64,0.46 -0.084,0.063 -0.16,0.118 -0.213,0.146 a 0.235,0.235 0 0 1 -0.101,0.033 c -0.063,0.009 -0.232,-0.027 -0.38,-0.07 l -0.238,-0.068 c -0.083,-0.019 -0.18,-0.044 -0.258,-0.055 a 2.524,2.524 0 0 0 -1.26,0.076 2.532,2.532 0 0 0 -0.987,0.635 c -0.503,0.526 -0.778,1.092 -1.02,1.616 l -0.014,0.028 -0.002,0.007 c -0.338,0.987 -0.57,1.928 -0.732,2.89 -0.064,0.388 -0.11,0.785 -0.151,1.187 -2.089,-0.404 -3.945,-0.765 -5.857,-1.12 l -3.405,-0.616 -0.225,-0.039 -0.028,-0.004 -0.053,-0.008 -0.056,-0.007 -0.111,-0.015 -0.45,-0.064 a 15.254,15.254 0 0 1 -0.92,-0.172 l -0.573,-0.125 c -6.782,-1.243 -9.107,4.863 -9.107,4.863 -0.121,0.317 -0.24,0.592 -0.394,0.785 -0.392,0.478 -0.933,0.925 -1.508,1.31 -0.29,0.19 -0.594,0.372 -0.906,0.521 -0.082,0.04 -0.146,0.069 -0.235,0.105 -0.076,0.033 -0.13,0.051 -0.2,0.07 a 1.66,1.66 0 0 1 -0.434,0.048 c -0.439,-0.008 -0.912,-0.152 -1.39,-0.35 1.735,-0.743 3.38,-3.768 4.259,-5.075 1.099,-1.63 2.04,-3.238 3.737,-4.325 2.378,-1.523 4.334,0.622 6.923,1.618 3.708,1.422 6.467,1.293 5.501,-0.01 -0.77,-1.037 2.596,0.637 3.733,-0.122 1.006,-0.67 1.563,-1.815 2.214,-2.795 0.295,-0.441 0.62,-0.833 0.98,-1.183 0.829,-0.537 1.693,-1.016 2.56,-1.491 2.143,-0.751 4.862,-1.25 5.96,-3.306 0.58,-1.09 0.036,-2.114 -0.72,-2.946 -1.012,-1.11 -2.2,-2.026 -3.087,-3.255 -0.949,-1.316 -1.254,-3.122 -1.271,-4.956 a 8,8 0 0 0 1.866,2.78 l 0.17,0.158 c 0.063,0.057 0.125,0.109 0.186,0.16 0.124,0.101 0.251,0.2 0.38,0.297 0.516,0.381 1.04,0.727 1.505,1.167 0.476,0.44 0.932,0.955 1.37,1.515 0.448,0.568 0.887,1.138 1.095,1.745 0.052,0.151 0.088,0.295 0.102,0.451 0.012,0.13 0.01,0.299 -0.008,0.473 -0.015,0.178 -0.039,0.374 -0.051,0.585 -0.006,0.106 -0.008,0.22 -0.003,0.333 l 0.004,0.088 0.008,0.088 0.018,0.15 c 0.06,0.436 0.165,0.8 0.224,1.146 0.03,0.173 0.051,0.335 0.052,0.489 0.007,0.078 0.004,0.16 -0.004,0.222 z"
         id="path2"
         inkscape:connector-curvature="0"
         style="stroke-width:1.03861296" />
      <path
         d="m 42.84,25.014 c 0.167,0.362 0.368,0.643 0.54,0.852 0.003,0.006 0.005,0.012 0.009,0.017 a 2.134,2.134 0 0 0 0.903,0.826 c 0.122,0.055 0.232,0.06 0.34,0.04 a 3.02,3.02 0 0 0 1.031,0.095 c -0.267,-0.27 -0.468,-0.498 -0.673,-0.712 l -0.055,-0.055 a 0.505,0.505 0 0 0 -0.207,-0.238 0.79,0.79 0 0 1 -0.06,-0.035 L 44.324,25.462 A 3.136,3.136 0 0 1 44.206,25.334 C 44.072,25.099 44.023,24.83 44.022,24.833 a 3.405,3.405 0 0 1 -0.059,-0.652 c -0.004,-0.356 0.044,-0.762 0.058,-0.898 0.024,-0.252 -0.119,-0.42 -0.389,-0.688 a 2.992,2.992 0 0 0 -0.178,0.094 c 0.05,-0.409 0.157,-0.79 0.26,-1.08 0.694,0.033 1.21,0.264 1.733,0.84 0.508,0.562 0.817,1.299 1.326,1.843 0.614,0.656 1.448,-0.59 1.854,-1.608 a 1.04,1.04 0 0 0 0.337,-0.25 c 0.08,-0.098 0.249,-0.286 0.399,-0.612 0.07,-0.162 0.139,-0.367 0.139,-0.615 a 1.21,1.21 0 0 0 -0.236,-0.71 1.64,1.64 0 0 0 -0.465,-0.417 1.303,1.303 0 0 0 -0.538,-0.199 0.91,0.91 0 0 0 -0.524,0.098 c -0.01,0.005 -0.012,0.009 -0.02,0.013 l -0.02,-0.14 c -0.009,-0.047 -0.02,-0.099 -0.034,-0.156 a 0.912,0.912 0 0 0 -0.098,-0.231 1.196,1.196 0 0 0 -0.193,-0.242 0.833,0.833 0 0 0 -0.27,-0.175 0.688,0.688 0 0 0 -0.634,0.077 0.63,0.63 0 0 0 -0.197,0.22 c -0.021,0.037 -0.035,0.079 -0.05,0.119 -0.092,0.096 -0.18,0.21 -0.277,0.312 -0.036,-0.064 -0.06,-0.127 -0.11,-0.193 a 1.13,1.13 0 0 0 -0.435,-0.347 1.006,1.006 0 0 0 -0.582,-0.062 c -0.166,0.03 -0.297,0.087 -0.412,0.145 -0.23,0.08 -0.446,0.19 -0.619,0.326 a 2.1,2.1 0 0 0 -0.643,0.82 l -0.047,0.101 c 0.004,-0.006 -0.138,0.269 -0.296,0.706 a 5.804,5.804 0 0 0 -0.353,1.755 c -0.012,0.343 0.014,0.7 0.085,1.042 0.064,0.343 0.175,0.66 0.305,0.945 z m 5.345,-4.154 c 0.005,0 0.004,0 0.01,0.003 0.01,0.003 0.023,0.011 0.037,0.018 l 0.062,0.038 c 0.066,0.04 0.146,0.108 0.177,0.156 0.019,0.025 0.016,0.045 0.023,0.065 A 1.173,1.173 0 0 0 48.15,21.078 c 0,-0.11 0.02,-0.187 0.035,-0.218 z m -3.076,29.452 c 0.356,0.315 0.567,0.504 1.029,0.515 0.06,0.002 0.156,0 0.274,-10e-4 a 5.17,5.17 0 0 0 0.414,-0.035 c 0.314,-0.036 0.663,-0.108 0.991,-0.2 0.66,-0.18 1.214,-0.43 1.214,-0.428 0,0 0.298,-0.121 0.685,-0.314 0.387,-0.19 0.858,-0.454 1.23,-0.685 l 0.568,-0.358 -0.496,-0.419 C 50.833,48.229 50.684,48.204 50.574,48.178 A 1.64,1.64 0 0 0 50.297,48.15 c -0.156,-10e-4 -0.267,0.01 -0.338,0.016 -0.481,0.058 -0.69,0.29 -0.97,0.667 0.103,0.057 0.197,0.105 0.285,0.146 -0.353,0.176 -0.622,0.288 -0.622,0.288 0,-0.001 -0.513,0.224 -1.093,0.381 -0.583,0.169 -1.2,0.216 -1.42,0.207 -0.396,0.004 -0.67,0.15 -1.03,0.457 z m 8.086,-33.688 c 0.428,0.215 1.531,0.64 1.888,0.217 0.058,-0.013 0.095,0.008 0.114,0.061 -0.011,-0.53 -0.002,-1.06 0,-1.59 10e-4,-0.407 -0.123,-0.675 -0.573,-0.607 -0.299,0.045 -0.572,0.213 -0.88,0.25 -0.24,0.028 -0.482,0.003 -0.722,0.002 -0.518,0 -0.954,-0.161 -1.075,0.465 h 0.309 c -0.57,0.317 0.765,1.115 0.94,1.202 z M 49.477,48 49.938,47.69 c -0.8,-0.244 -1.535,-0.595 -2.296,-0.938 -0.74,-0.333 -1.13,-0.282 -1.3,0.577 -0.12,0.606 -0.186,1.551 0.673,1.426 0.83,-0.122 1.633,-0.575 2.462,-0.756 z m 10.969,37.05 c 0.875,-0.745 1.527,-1.483 2.217,-2.403 l -2.2,0.206 z"
         id="path4"
         inkscape:connector-curvature="0"
         style="stroke-width:1.03861296" />
    </g>
    <path
       d="m 165.118,73.626 q 0,-3.246 1.668,-9.016 1.668,-5.77 4.373,-12.621 2.704,-6.852 6.13,-14.155 a 253.94,253.94 0 0 1 4.3,-8.74 214.114,214.114 0 0 1 2.597,-4.873 151.358,151.358 0 0 1 2.985,-5.194 q 1.886,-3.128 3.687,-5.715 3.2,-4.598 5.454,-6.22 1.262,0.09 2.75,1.081 1.487,0.992 2.75,2.39 a 16.329,16.329 0 0 1 1.84,2.454 14.84,14.84 0 0 1 0.278,0.476 8.263,8.263 0 0 1 0.488,1.021 q 0.369,0.945 0.369,1.773 a 47.136,47.136 0 0 0 -3.834,3.449 q -2.189,2.184 -4.416,4.89 -4.192,5.094 -7.978,11.18 -3.787,6.085 -6.987,12.892 -3.2,6.807 -5.365,13.388 a 86.268,86.268 0 0 1 3.712,-5.846 73.165,73.165 0 0 1 2.329,-3.17 q 3.155,-4.056 6.31,-6.941 a 35.975,35.975 0 0 1 2.736,-2.274 q 1.524,-1.139 3.015,-1.96 a 21.669,21.669 0 0 1 0.425,-0.229 q 3.02,-1.578 5.725,-1.668 3.967,2.885 3.967,7.663 a 15.154,15.154 0 0 1 -0.774,4.718 17.842,17.842 0 0 1 -0.398,1.097 q -1.172,2.93 -3.11,5.41 -1.939,2.479 -4.418,4.237 a 14.312,14.312 0 0 1 -3.187,1.722 12.49,12.49 0 0 1 -1.997,0.577 q 0.902,3.155 2.299,6.4 1.397,3.246 3.336,6.312 1.938,3.065 4.417,5.68 2.48,2.614 5.635,4.417 -0.423,0.845 -1.241,1.69 a 9.963,9.963 0 0 1 -0.111,0.113 8.675,8.675 0 0 1 -1.464,1.169 10.443,10.443 0 0 1 -0.7,0.409 12.89,12.89 0 0 1 -2.336,0.963 14.558,14.558 0 0 1 -0.414,0.119 11.273,11.273 0 0 1 -2.478,0.396 10.342,10.342 0 0 1 -0.452,0.01 5.052,5.052 0 0 1 -2.744,-0.836 q -0.931,-0.59 -1.809,-1.599 a 15.369,15.369 0 0 1 -1.531,-2.13 q -0.692,-1.14 -1.333,-2.549 a 36.108,36.108 0 0 1 -0.967,-2.353 64.162,64.162 0 0 1 -1.002,-2.975 q -0.515,-1.655 -1.016,-3.53 a 118.208,118.208 0 0 1 -0.597,-2.33 163.764,163.764 0 0 1 -1.74,-7.962 181.962,181.962 0 0 1 -0.514,-2.766 q 1.263,-0.812 3.156,-2.39 1.893,-1.577 3.967,-3.65 a 47.29,47.29 0 0 0 3.424,-3.647 q 3.259,-3.897 4.162,-7.179 a 9.134,9.134 0 0 0 0.347,-2.428 0.732,0.732 0 0 0 -0.074,-0.34 q -0.197,-0.38 -0.917,-0.38 -1.804,0.09 -4.238,1.712 a 24.036,24.036 0 0 0 -2.11,1.594 q -1.02,0.856 -2.09,1.912 a 45.754,45.754 0 0 0 -0.984,1.002 q -2.75,2.885 -5.59,6.761 -2.84,3.877 -5.454,8.385 a 23.682,23.682 0 0 0 -1.145,2.166 30.933,30.933 0 0 0 -0.838,1.981 q -0.902,2.344 -1.578,4.823 -0.676,2.48 -1.037,4.914 a 34.714,34.714 0 0 0 -0.286,2.554 26.834,26.834 0 0 0 -0.074,1.953 9.758,9.758 0 0 0 0.031,0.815 q 0.036,0.409 0.106,0.756 a 4.36,4.36 0 0 0 0.133,0.503 11.109,11.109 0 0 1 -1.118,-0.161 q -1.137,-0.23 -1.755,-0.674 a 1.814,1.814 0 0 1 -0.553,-0.607 q -0.645,-0.968 -1.11,-1.611 a 26.332,26.332 0 0 0 -0.107,-0.147 q -0.496,-0.677 -1.036,-1.127 a 2.24,2.24 0 0 1 -0.458,-0.503 q -0.374,-0.54 -0.677,-1.458 a 12.215,12.215 0 0 1 -0.218,-0.744 q -0.54,-2.074 -0.54,-5.229 z m 44.898,0 q 0,-3.246 1.667,-9.016 1.668,-5.77 4.373,-12.621 2.705,-6.852 6.13,-14.155 a 253.94,253.94 0 0 1 4.3,-8.74 214.114,214.114 0 0 1 2.597,-4.873 151.358,151.358 0 0 1 2.985,-5.194 q 1.886,-3.128 3.687,-5.715 3.2,-4.598 5.454,-6.22 1.262,0.09 2.75,1.081 1.487,0.992 2.75,2.39 a 16.329,16.329 0 0 1 1.84,2.454 14.84,14.84 0 0 1 0.278,0.476 8.263,8.263 0 0 1 0.488,1.021 q 0.369,0.945 0.369,1.773 a 47.136,47.136 0 0 0 -3.834,3.449 q -2.189,2.184 -4.415,4.89 -4.193,5.094 -7.98,11.18 -3.786,6.085 -6.986,12.892 -3.2,6.807 -5.364,13.388 a 86.268,86.268 0 0 1 3.711,-5.846 73.165,73.165 0 0 1 2.329,-3.17 q 3.155,-4.056 6.31,-6.941 a 35.975,35.975 0 0 1 2.736,-2.274 q 1.524,-1.139 3.015,-1.96 a 21.669,21.669 0 0 1 0.425,-0.229 q 3.02,-1.578 5.725,-1.668 3.967,2.885 3.967,7.663 a 15.154,15.154 0 0 1 -0.773,4.718 17.842,17.842 0 0 1 -0.399,1.097 q -1.172,2.93 -3.11,5.41 -1.939,2.479 -4.418,4.237 a 14.312,14.312 0 0 1 -3.187,1.722 12.49,12.49 0 0 1 -1.997,0.577 q 0.902,3.155 2.3,6.4 1.397,3.246 3.335,6.312 1.938,3.065 4.418,5.68 2.479,2.614 5.634,4.417 -0.423,0.845 -1.241,1.69 a 9.963,9.963 0 0 1 -0.111,0.113 8.675,8.675 0 0 1 -1.464,1.169 10.443,10.443 0 0 1 -0.7,0.409 12.89,12.89 0 0 1 -2.336,0.963 14.558,14.558 0 0 1 -0.414,0.119 11.273,11.273 0 0 1 -2.478,0.396 10.342,10.342 0 0 1 -0.452,0.01 5.052,5.052 0 0 1 -2.744,-0.836 q -0.931,-0.59 -1.808,-1.599 a 15.369,15.369 0 0 1 -1.532,-2.13 q -0.692,-1.14 -1.333,-2.549 a 36.108,36.108 0 0 1 -0.967,-2.353 64.162,64.162 0 0 1 -1.002,-2.975 q -0.514,-1.655 -1.016,-3.53 a 118.208,118.208 0 0 1 -0.596,-2.33 163.764,163.764 0 0 1 -1.741,-7.962 181.962,181.962 0 0 1 -0.513,-2.766 q 1.262,-0.812 3.155,-2.39 1.893,-1.577 3.967,-3.65 a 47.29,47.29 0 0 0 3.424,-3.647 q 3.26,-3.897 4.162,-7.179 a 9.134,9.134 0 0 0 0.348,-2.428 0.732,0.732 0 0 0 -0.074,-0.34 q -0.198,-0.38 -0.918,-0.38 -1.803,0.09 -4.237,1.712 a 24.036,24.036 0 0 0 -2.11,1.594 q -1.02,0.856 -2.09,1.912 a 45.754,45.754 0 0 0 -0.984,1.002 q -2.75,2.885 -5.59,6.761 -2.84,3.877 -5.454,8.385 a 23.682,23.682 0 0 0 -1.145,2.166 30.933,30.933 0 0 0 -0.839,1.981 q -0.901,2.344 -1.578,4.823 -0.676,2.48 -1.036,4.914 a 34.714,34.714 0 0 0 -0.287,2.554 26.834,26.834 0 0 0 -0.074,1.953 9.758,9.758 0 0 0 0.032,0.815 q 0.035,0.409 0.105,0.756 a 4.36,4.36 0 0 0 0.134,0.503 11.109,11.109 0 0 1 -1.12,-0.161 q -1.136,-0.23 -1.754,-0.674 a 1.814,1.814 0 0 1 -0.552,-0.607 q -0.646,-0.968 -1.11,-1.611 a 26.332,26.332 0 0 0 -0.107,-0.147 Q 212.45,82.01 211.909,81.56 a 2.24,2.24 0 0 1 -0.458,-0.503 q -0.373,-0.54 -0.676,-1.458 a 12.215,12.215 0 0 1 -0.219,-0.744 q -0.54,-2.074 -0.54,-5.229 z M 154.453,45.73 a 6.37,6.37 0 0 0 -0.784,-0.052 q -0.992,2.073 -2.119,4.282 -1.127,2.21 -2.299,4.373 -1.172,2.163 -2.299,4.147 -1.127,1.983 -2.028,3.606 -3.424,5.768 -6.134,9.42 a 43.915,43.915 0 0 1 -2.16,2.706 29.273,29.273 0 0 1 -1.03,1.122 q -2.797,2.883 -5.011,3.34 a 1.75,1.75 0 0 1 -0.832,-0.593 q -0.43,-0.57 -0.43,-1.57 0,-2.333 0.627,-4.865 a 28.486,28.486 0 0 1 1.356,-4.06 q 1.984,-4.779 5.094,-8.97 a 40.976,40.976 0 0 1 0.791,-1.034 36.103,36.103 0 0 1 6.15,-6.134 24.68,24.68 0 0 1 0.985,-0.727 q 1.47,-1.029 2.907,-1.694 a 13.05,13.05 0 0 1 3.547,-1.095 q -0.063,-0.561 -0.427,-1.273 a 7.989,7.989 0 0 0 -0.385,-0.666 13.011,13.011 0 0 0 -0.533,-0.769 15.396,15.396 0 0 0 -1.225,-1.44 17.441,17.441 0 0 0 -0.326,-0.331 15.464,15.464 0 0 0 -1.837,-1.562 10.803,10.803 0 0 0 -0.6,-0.403 q -0.774,-0.482 -1.429,-0.678 a 9.695,9.695 0 0 0 -1.916,0.29 q -2.8,0.711 -5.747,3.09 a 35.014,35.014 0 0 0 -3.243,2.982 43.066,43.066 0 0 0 -4.105,4.997 q -3.38,4.778 -5.544,10.368 a 34.732,34.732 0 0 0 -1.401,4.452 26.552,26.552 0 0 0 -0.763,6.186 20.53,20.53 0 0 0 0.007,0.558 q 0.117,4.312 2.066,7.15 a 9.35,9.35 0 0 0 0.539,0.71 6.595,6.595 0 0 0 4.87,2.491 q 2.074,-0.36 4.554,-2.119 2.479,-1.758 4.913,-4.553 a 48.351,48.351 0 0 0 2.112,-2.609 61.284,61.284 0 0 0 2.666,-3.837 q 2.344,-3.65 4.147,-7.798 a 90.238,90.238 0 0 0 -0.806,2.183 q -2.62,7.388 -2.62,11.881 a 14.635,14.635 0 0 0 0.104,1.804 q 0.412,3.31 2.467,4.37 a 4.955,4.955 0 0 0 2.298,0.498 8.531,8.531 0 0 0 0.343,-0.008 q 0.622,-0.025 1.317,-0.14 a 15.368,15.368 0 0 0 1.405,-0.303 13.704,13.704 0 0 0 0.583,-0.167 q 1.32,-0.411 2.212,-1.005 a 3.63,3.63 0 0 1 -1.296,-1.271 5.125,5.125 0 0 1 -0.507,-1.118 q -0.541,-1.668 -0.541,-4.192 0,-2.254 0.586,-5.32 a 54.121,54.121 0 0 1 0.608,-2.768 69.313,69.313 0 0 1 1.06,-3.813 85.532,85.532 0 0 1 0.874,-2.681 101.681,101.681 0 0 1 1.74,-4.667 q 1.533,-3.831 3.336,-7.618 a 0.673,0.673 0 0 0 -0.034,-0.207 q -0.082,-0.255 -0.363,-0.536 a 3.338,3.338 0 0 0 -0.28,-0.248 q -0.38,-0.305 -0.86,-0.595 a 11.578,11.578 0 0 0 -0.807,-0.442 q -0.992,-0.496 -2.209,-0.812 -0.723,-0.187 -1.334,-0.263 z m 131.717,0 a 6.37,6.37 0 0 0 -0.785,-0.052 q -0.992,2.073 -2.118,4.282 -1.127,2.21 -2.3,4.373 -1.171,2.163 -2.298,4.147 -1.127,1.983 -2.029,3.606 -3.423,5.768 -6.133,9.42 a 43.915,43.915 0 0 1 -2.161,2.706 29.273,29.273 0 0 1 -1.03,1.122 q -2.796,2.883 -5.01,3.34 a 1.75,1.75 0 0 1 -0.833,-0.593 q -0.43,-0.57 -0.43,-1.57 0,-2.333 0.628,-4.865 a 28.486,28.486 0 0 1 1.356,-4.06 q 1.983,-4.779 5.093,-8.97 a 40.976,40.976 0 0 1 0.792,-1.034 36.103,36.103 0 0 1 6.15,-6.134 24.68,24.68 0 0 1 0.985,-0.727 q 1.47,-1.029 2.907,-1.694 a 13.05,13.05 0 0 1 3.546,-1.095 q -0.062,-0.561 -0.426,-1.273 a 7.989,7.989 0 0 0 -0.385,-0.666 13.011,13.011 0 0 0 -0.533,-0.769 15.396,15.396 0 0 0 -1.225,-1.44 17.441,17.441 0 0 0 -0.327,-0.331 15.464,15.464 0 0 0 -1.837,-1.562 10.803,10.803 0 0 0 -0.6,-0.403 q -0.773,-0.482 -1.428,-0.678 a 9.695,9.695 0 0 0 -1.916,0.29 q -2.8,0.711 -5.748,3.09 a 35.014,35.014 0 0 0 -3.242,2.982 43.066,43.066 0 0 0 -4.105,4.997 q -3.381,4.778 -5.545,10.368 a 34.732,34.732 0 0 0 -1.4,4.452 26.552,26.552 0 0 0 -0.763,6.186 20.53,20.53 0 0 0 0.007,0.558 q 0.117,4.312 2.066,7.15 a 9.35,9.35 0 0 0 0.538,0.71 6.595,6.595 0 0 0 4.871,2.491 q 2.074,-0.36 4.553,-2.119 2.48,-1.758 4.914,-4.553 a 48.351,48.351 0 0 0 2.112,-2.609 61.284,61.284 0 0 0 2.666,-3.837 q 2.344,-3.65 4.147,-7.798 a 90.238,90.238 0 0 0 -0.807,2.183 q -2.619,7.388 -2.619,11.881 a 14.635,14.635 0 0 0 0.104,1.804 q 0.412,3.31 2.466,4.37 a 4.955,4.955 0 0 0 2.298,0.498 8.531,8.531 0 0 0 0.343,-0.008 q 0.623,-0.025 1.317,-0.14 a 15.368,15.368 0 0 0 1.406,-0.303 13.704,13.704 0 0 0 0.583,-0.167 q 1.32,-0.411 2.212,-1.005 A 3.63,3.63 0 0 1 284.9,81.01 5.125,5.125 0 0 1 284.393,79.892 q -0.54,-1.668 -0.54,-4.192 0,-2.254 0.586,-5.32 a 54.121,54.121 0 0 1 0.607,-2.768 69.313,69.313 0 0 1 1.06,-3.813 85.532,85.532 0 0 1 0.875,-2.681 101.681,101.681 0 0 1 1.74,-4.667 q 1.533,-3.831 3.336,-7.618 a 0.673,0.673 0 0 0 -0.035,-0.207 Q 291.94,48.371 291.66,48.09 a 3.338,3.338 0 0 0 -0.28,-0.248 Q 291,47.537 290.52,47.247 a 11.578,11.578 0 0 0 -0.807,-0.442 q -0.992,-0.496 -2.21,-0.812 -0.722,-0.187 -1.333,-0.263 z m 41.273,2.908 a 16.381,16.381 0 0 0 0.315,-2.42 3.51,3.51 0 0 0 -0.09,-0.3 q -0.35,-1.005 -1.443,-2.449 a 28.744,28.744 0 0 0 -0.664,-0.844 32.993,32.993 0 0 0 -2.22,-2.447 40.355,40.355 0 0 0 -0.61,-0.597 35.746,35.746 0 0 0 -2.681,-2.333 19.274,19.274 0 0 0 -0.586,-0.442 q -0.829,-0.6 -1.463,-0.9 a 3.723,3.723 0 0 0 -0.61,-0.235 12.703,12.703 0 0 0 -1.197,0.339 14.034,14.034 0 0 0 -3.312,1.644 q -2.163,1.443 -3.786,3.471 -1.623,2.029 -2.615,4.418 a 14.169,14.169 0 0 0 -0.12,0.298 12.4,12.4 0 0 0 -0.871,4.525 q 0,1.893 0.45,3.832 0.451,1.938 0.947,3.966 a 115.284,115.284 0 0 1 0.03,0.127 125.532,125.532 0 0 1 0.917,4.066 q 0.45,2.163 0.45,4.417 a 24.635,24.635 0 0 0 -0.982,0.087 21.452,21.452 0 0 0 -6.365,1.671 q -3.38,1.488 -5.86,3.877 -2.48,2.389 -3.922,5.5 -1.442,3.11 -1.442,6.536 a 6.927,6.927 0 0 0 0.438,1.134 8.594,8.594 0 0 0 0.824,1.345 q 0.901,1.217 2.118,2.209 1.218,0.991 2.57,1.622 a 8.756,8.756 0 0 0 1.043,0.41 6.755,6.755 0 0 0 1.571,0.312 21.958,21.958 0 0 0 4.054,-0.77 15.477,15.477 0 0 0 7.351,-4.55 15.63,15.63 0 0 0 3.531,-6.934 22.704,22.704 0 0 0 0.571,-5.236 51.319,51.319 0 0 0 0,-0.053 q 0,-1.046 -0.045,-1.75 -0.045,-0.722 -0.045,-1.443 a 3.525,3.525 0 0 1 0.013,-0.324 q 0.03,-0.318 0.122,-0.532 a 0.593,0.593 0 0 1 0.081,-0.135 q 0.13,-0.164 0.403,-0.314 a 3.117,3.117 0 0 1 0.282,-0.137 6.117,6.117 0 0 1 0.24,-0.097 q 0.605,-0.23 1.609,-0.49 a 47.39,47.39 0 0 1 0.617,-0.155 q 1.086,-0.266 2.673,-0.61 a 1.064,1.064 0 0 0 0.236,-0.372 q 0.065,-0.169 0.096,-0.38 a 2.88,2.88 0 0 0 0.029,-0.42 6.029,6.029 0 0 0 -0.001,-0.077 q -0.004,-0.35 -0.05,-0.532 a 0.556,0.556 0 0 0 -0.04,-0.113 q -1.442,0 -2.93,0.045 a 138.971,138.971 0 0 0 -0.199,0.006 q -1.413,0.045 -3.181,0.13 a 0.215,0.215 0 0 1 -0.003,-0.006 q -0.071,-0.153 -0.084,-0.764 a 14.25,14.25 0 0 1 -0.003,-0.313 q 0,-8.745 1.893,-13.252 1.893,-4.508 5.5,-4.508 a 2.282,2.282 0 0 1 0.018,0 q 0.6,0.005 1.05,0.326 a 2.092,2.092 0 0 1 0.51,0.53 3.246,3.246 0 0 1 0.485,1.143 4.502,4.502 0 0 1 0.1,0.976 2.923,2.923 0 0 1 -0.012,0.263 q -0.021,0.228 -0.076,0.483 a 5.903,5.903 0 0 1 -0.137,0.516 q -0.226,0.721 -0.496,1.443 -0.27,0.72 -0.496,1.307 a 6.484,6.484 0 0 0 -0.095,0.264 q -0.085,0.252 -0.114,0.426 a 1.01,1.01 0 0 0 -0.016,0.166 q 0.109,0.765 0.515,1.1 a 1.173,1.173 0 0 0 0.657,0.253 q 0.54,0 1.132,-0.558 a 4.595,4.595 0 0 0 0.4,-0.434 q 0.457,-0.558 0.885,-1.273 a 15.601,15.601 0 0 0 0.648,-1.206 16.639,16.639 0 0 0 0.588,-1.37 20.73,20.73 0 0 0 0.63,-1.966 19.39,19.39 0 0 0 0.27,-1.142 z M 85.647,73.4 a 166.26,166.26 0 0 0 -0.102,0.387 q -1.046,4.014 -1.476,6.51 0.186,0.495 0.67,1.034 a 6.723,6.723 0 0 0 0.502,0.498 14.034,14.034 0 0 0 0.525,0.449 16.23,16.23 0 0 0 1.503,1.084 18.378,18.378 0 0 0 0.432,0.267 16.166,16.166 0 0 0 1.822,0.95 10.641,10.641 0 0 0 0.593,0.24 q 0.756,0.28 1.346,0.346 a 148.988,148.988 0 0 1 0.64,-2.822 q 1.06,-4.456 2.2,-7.907 a 44.118,44.118 0 0 1 1.312,-3.491 34.87,34.87 0 0 1 2.294,-4.487 q 2.118,-3.471 5.093,-6.311 a 44.805,44.805 0 0 1 0.4,-0.378 q 1.423,-1.324 3.117,-2.678 a 74.786,74.786 0 0 1 3.696,-2.76 q 0.901,2.615 2.795,4.824 a 16.34,16.34 0 0 0 0.178,0.205 14.348,14.348 0 0 0 4.15,3.266 q 1.351,-1.352 2.478,-2.885 0.881,-1.197 1.128,-1.79 a 1.328,1.328 0 0 0 0.09,-0.283 5.6,5.6 0 0 1 -0.19,-0.35 q -0.983,-1.968 -0.983,-5.6 a 22.488,22.488 0 0 1 0.16,-2.658 25.31,25.31 0 0 1 1.463,-5.907 q -0.31,-0.496 -0.96,-0.843 a 4.628,4.628 0 0 0 -0.663,-0.284 q -1.172,-0.406 -2.434,-0.406 -0.909,0 -1.45,0.204 a 1.517,1.517 0 0 0 -0.443,0.247 73.896,73.896 0 0 1 -0.82,1.202 66.109,66.109 0 0 1 -6.167,7.633 q -3.741,3.967 -8.61,8.294 1.183,-3.606 2.349,-6.403 a 49.233,49.233 0 0 1 1.393,-3.063 37.144,37.144 0 0 1 0.836,-1.579 32.126,32.126 0 0 1 3.446,-5.002 q -0.34,-0.397 -0.858,-0.812 a 11.005,11.005 0 0 0 -0.675,-0.496 16.93,16.93 0 0 0 -0.92,-0.583 21.596,21.596 0 0 0 -1.334,-0.724 q -1.262,-0.631 -2.614,-1.082 a 16.853,16.853 0 0 0 -0.837,-0.255 14.214,14.214 0 0 0 -1.778,-0.376 q -1.081,1.082 -1.983,2.66 -0.62,1.084 -1.368,2.744 a 68.18,68.18 0 0 0 -0.706,1.628 q -1.622,3.877 -3.335,8.745 -1.713,4.869 -3.246,9.692 a 213.952,213.952 0 0 0 -1.093,3.541 175.335,175.335 0 0 0 -1.566,5.565 z m 212.36,13.929 q 2.164,-0.902 4.102,-2.615 1.938,-1.713 3.38,-3.877 1.443,-2.163 2.3,-4.598 a 15.058,15.058 0 0 0 0.764,-3.23 13.155,13.155 0 0 0 0.092,-1.548 q -1.803,0.27 -3.967,1.668 -2.163,1.398 -4.057,3.336 a 23.86,23.86 0 0 0 -2.213,2.602 20.29,20.29 0 0 0 -0.942,1.41 q -0.799,1.312 -1.092,2.407 a 4.643,4.643 0 0 0 -0.17,1.199 3.676,3.676 0 0 0 1.284,2.834 5.344,5.344 0 0 0 0.519,0.412 z"
       id="path8"
       inkscape:connector-curvature="0"
       style="fill-rule:evenodd;stroke-width:0.36708519;stroke-linecap:round" />
  </g>
  <text
     xml:space="preserve"
     style="font-style:normal;font-variant:normal;font-weight:normal;font-stretch:normal;font-size:10.58334351px;line-height:1.25;font-family:'DejaVu Serif';-inkscape-font-specification:'DejaVu Serif';letter-spacing:0px;word-spacing:0px;fill:#000000;fill-opacity:1;stroke:none;stroke-width:0.26458359"
     x="36.546806"
     y="123.64964"
     id="text830"><tspan
       sodipodi:role="line"
       id="tspan828"
       x="36.546806"
       y="123.64964"
       style="font-style:normal;font-variant:normal;font-weight:normal;font-stretch:normal;font-family:'DejaVu Serif';-inkscape-font-specification:'DejaVu Serif';stroke-width:0.26458359">Lightning fast Next.js alternative powered by Vite</tspan></text>
</svg>
