<svg xmlns="http://www.w3.org/2000/svg" viewBox="0 0 338.667 105.833" height="400" width="1280"><g stroke-width="1.077" fill="#924"><g stroke-width=".829"><path d="M67.518 68.931c-.07-.404-.173-.776-.218-1.098a4.633 4.633 0 0 1-.015-.134l-.005-.035c.002.007 0-.015 0-.02l-.005-.057a2.552 2.552 0 0 1 .005-.24c.01-.168.03-.352.049-.555.016-.205.028-.417.005-.667a2.965 2.965 0 0 0-.149-.656c-.294-.833-.804-1.457-1.251-2.033a13.71 13.71 0 0 0-1.478-1.63c-.532-.5-1.11-.88-1.586-1.231-.12-.09-.232-.177-.34-.264l-.15-.13-.15-.14a6.92 6.92 0 0 1-.529-.572 7.012 7.012 0 0 1-1.188-2.057c-.194-.536-.242-.85-.244-.85.004 0-.096-.35-.115-.972a4.351 4.351 0 0 1 .645-2.432l-.71-.645c-1.296.984-2.88 2.224-4.732 3.241-.924.505-1.92.947-2.956 1.25-1.033.299-2.115.455-3.166.447-1.05-.008-2.069-.184-2.965-.519a6.815 6.815 0 0 1-2.263-1.374 4.758 4.758 0 0 1-1.204-1.722 4.978 4.978 0 0 1-.334-1.437c-.075-.934.056-1.795.226-2.582.178-.79.406-1.513.649-2.215.488-1.404 1.05-2.717 1.682-4.298l-.316.501.904-2.364c.105-.136.216-.265.31-.415.133-.21.23-.438.314-.653l.233-.633c.037-.1.077-.199.119-.293l.139-.29c.383-.804.79-1.648 1.288-2.751l.583-1.313c.064-.146.121-.277.191-.415.07-.142.148-.29.231-.445.168-.31.36-.646.546-1.025.044-.092.096-.2.136-.293.048-.11.086-.206.126-.308.078-.197.147-.387.228-.552a2.42 2.42 0 0 1 .13-.237c.023-.036.048-.073.073-.106l.097-.13c.131-.17.27-.367.402-.556.528-.755.997-1.523 1.562-2.177 1.122-1.318 2.535-2.27 3.595-2.936 1.076-.667 1.782-1.087 1.78-1.087l.832-.493c.276-.162.597-.387.93-.617.338-.228.706-.47 1.1-.615l.882-.324-.765-.533c-.752-.523-1.408-1.428-1.895-2.479-.493-1.047-.867-2.242-1.204-3.348a21.919 21.919 0 0 1-.395-1.61 30 30 0 0 1-.143-.753c-.042-.234-.071-.47-.118-.718a3.431 3.431 0 0 0-.207-.73 1.947 1.947 0 0 0-.317-.51 1.345 1.345 0 0 0-.811-.447 1.711 1.711 0 0 0-.53 0c-.388.06-.69.195-.958.334a5.83 5.83 0 0 0-.711.45c-.213.155-.406.313-.585.461-.162.133-.373.29-.55.472-.09.093-.18.194-.26.328a.866.866 0 0 0-.101.24.601.601 0 0 0 .005.331.558.558 0 0 0 .454.37c.147.029.273.02.395.01.488-.053.932-.213 1.42-.365-.512 0-.99.02-1.41-.048a.987.987 0 0 1-.27-.076c-.022-.01-.03-.021-.04-.032h.007c.029.003.013.001.023-.004l.05-.056c.05-.049.12-.106.197-.16.163-.116.338-.206.56-.343l.605-.376c.203-.122.417-.242.638-.348.221-.103.457-.193.67-.223.16-.02.317-.013.429.088.129.103.266.4.337.817l.114.709c.045.252.094.513.149.781.111.54.245 1.102.414 1.686.17.578.358 1.155.559 1.743.204.587.43 1.178.698 1.75.27.57.583 1.118.956 1.61.2.267.422.512.655.737-.219.128-.416.26-.594.38-.354.243-.633.44-.884.588l-.83.493s-.708.421-1.799 1.094c-1.087.685-2.585 1.683-3.821 3.129l-.227.274c-.078.097-.149.19-.216.28-.144.196-.28.381-.412.575l-.765 1.124c-.127.18-.246.347-.382.527l-.101.137a3.044 3.044 0 0 0-.297.498c-.107.22-.183.431-.26.62l-.108.268c-.04.095-.077.17-.12.26-.166.34-.353.667-.527.99-.087.16-.171.32-.249.478-.077.16-.15.322-.209.456l-.576 1.308c-.167.378-.31.724-.444 1.06-.425-.882-1.205-1.984-1.204-2.6.001-.843.214-1.598.485-2.393.165-.486.293-.983.442-1.464.13-.413.406-.775.55-1.173.183-.497.411-.978.607-1.482.113-.29.347-.74.33-1.05-.242.281-.31.61-.466.933-.204.419-.524.78-.752 1.185-.388.685-.88 1.454-1.443 2.016-.485.482-1.323.844-1.981 1.012-.361.09-.844.256-1.114-.071-.234-.286-.208-.858-.16-1.193-.334.235-.183.669-.713.704-.666.947-1.105 1.84-.695 2.996.442 1.245 1.31 2.283 1.576 3.604.273 1.365-.138 2.714-.555 4.005-.494 1.532-.994 3.066-1.572 4.567-1.416 3.67-3.254 7.441-5.574 10.625-2.186 3-5.208 5.18-7.699 7.9-2.716 2.968-5.66 5.52-9.338 7.211 2.154 1.32 2.35 3.76 3.866 5.81 1.003 1.359 2.387 3.774 3.887 5.58a13.987 13.987 0 0 1-2.505-2.163c-.5-.554-.979-1.177-1.452-1.774l-1.397-1.787-.688-.859c-.222-.277-.435-.559-.643-.84-.831-1.125-1.6-2.247-2.448-3.193-.22-.244-.414-.454-.644-.677-.135-.131-.283-.24-.426-.356.215-.103.43-.208.662-.335a32.125 32.125 0 0 0 1.97-1.197c2.847-1.788 6.555-4.486 10.078-7.714a74.387 74.387 0 0 0 5.092-5.102c1.593-1.775 3.004-3.64 4.077-5.498.268-.464.518-.926.745-1.384.23-.458.433-.915.623-1.34l1.07-2.401c.32-.737.608-1.416.845-1.998a15.51 15.51 0 0 0 .54-1.562c.487-1.705.684-3.244.821-4.657l.023-.266c.009-.102.013-.202.012-.304a3.086 3.086 0 0 0-.07-.592 4.317 4.317 0 0 0-.386-1.032c-.315-.613-.645-1.125-.797-1.679l-.044-.163-.132-.06-.276-.125c-.085-.203-.176-.387-.258-.566a3.14 3.14 0 0 1-.239-.644.987.987 0 0 1-.02-.296.844.844 0 0 1 .026-.126.777.777 0 0 1 .03-.07l.04-.077c.112-.2.261-.39.43-.576.343-.375.715-.76 1.033-1.207.329-.44.518-.97.93-1.372-.458.355-.72.874-1.08 1.255-.353.393-.75.724-1.137 1.069-.195.176-.388.37-.546.599l-.057.088a1.069 1.069 0 0 0-.136.334 1.416 1.416 0 0 0-.017.456c.071.57.334 1.043.452 1.472l.032.118.13.07.225.124c.154.63.457 1.188.689 1.719.125.287.229.57.275.853a2.217 2.217 0 0 1 .015.644l-.032.258c-.184 1.38-.406 2.87-.872 4.481-.118.403-.279.901-.508 1.464-.24.588-.517 1.243-.838 1.977l-1.067 2.392c-.194.435-.388.867-.606 1.303-.218.439-.458.882-.717 1.33-2.05 3.592-5.516 7.177-8.98 10.367a73.879 73.879 0 0 1-5.223 4.341 70.052 70.052 0 0 1-4.724 3.276c-.702.452-1.337.85-1.91 1.163-.427.233-.803.407-1.15.55a6.933 6.933 0 0 0-1.183-.485l-.173-.054-.085-.025a1.774 1.774 0 0 0-.99.001c-.54.16-.917.548-1.109.932l-.204.412.4.23c.47.273.94.405 1.257.428.317.025.478.001.478.005.002-.003.155-.005.451-.06.252-.049.629-.143 1.073-.302.063.04.128.07.19.114.408.286.792.68 1.192 1.128.792.883 1.541 1.973 2.39 3.125.212.287.433.577.664.866l.687.858 1.393 1.782c.482.607.948 1.217 1.498 1.828a14.838 14.838 0 0 0 1.787 1.663c.64.506 1.32.962 2.021 1.37.351.205.707.396 1.067.577l1.06.527c.36.174.733.34 1.13.475.397.13.818.235 1.276.241.227.004.462-.019.694-.08.113-.029.237-.073.334-.115a6.99 6.99 0 0 0 .28-.125 8.72 8.72 0 0 0 1.022-.588c.61-.413 1.163-.868 1.646-1.427a254.92 254.92 0 0 1 2.45 2.812l1.248 1.735c-.001 0 .589.827 1.185 1.76.605.931 1.177 1.984 1.354 2.34.225.44 1.523 2.065 2.488 3.168.218.302.473.575.778.84.073.073.14.136.188.172-.254-.958-.269-1.576-.805-2.643-.08-.153-.2-.353-.335-.59-.065-.12-.135-.246-.194-.378a2.112 2.112 0 0 1-.079-.197c-.026-.072-.034-.112-.06-.215-.035-.157-.064-.343-.104-.552a6.307 6.307 0 0 0-.157-.64 22.471 22.471 0 0 1-.295-1.207l-.458-2.193-.088-.392-.051-.282-.042-.257c-.006 0-.04-.367-.178-.997a5.245 5.245 0 0 0-.145-.506l-.083-.252-.074-.249a11.898 11.898 0 0 1-.257-1.133c-.075-.403-.11-.804-.185-1.252l-.14-.814c-.121-1.17-.213-2.674-.05-3.697a6.799 6.799 0 0 1 1.713-.095c.536.166 1.064.306 1.578.407a15.04 15.04 0 0 0 1.458.21l.12.011.059.006h.012l.02.003.227.031c1.204.164 2.334.302 3.439.425 1.935.214 3.823.38 5.944.544a20.847 20.847 0 0 0-.105 1.765c.124-.62.267-1.19.418-1.74l.598.045c-.2-.038-.383-.073-.579-.112.106-.382.215-.76.332-1.127.29-.9.615-1.77 1.007-2.687.256-.47.541-.95.918-1.308.38-.363.833-.532 1.42-.42.06.01.105.021.172.036l.229.065c.18.045.379.122.719.108.17-.01.357-.073.492-.149.139-.074.241-.153.342-.229.207-.16.347-.28.539-.39.373-.219.833-.355 1.375-.382.28-.019.53 0 .882.02.173.007.366.007.577-.023a1.676 1.676 0 0 0 .811-.353l.059-.05.055-.051c.073-.068.141-.14.205-.21.13-.143.245-.29.357-.437.219-.292.417-.587.62-.838.2-.245.478-.52.725-.836.25-.316.495-.704.61-1.163a2.294 2.294 0 0 0 .061-.343c.015-.126.017-.23.016-.346a3.803 3.803 0 0 0-.066-.645zM52.43 14.121l-.01.004h.008c-.002.006-.003.013-.007.019a.087.087 0 0 0-.007.012l-.012-.005-.024-.008-.004-.002-.002-.002-.002-.001.061-.018v.002zm.008-.002c0-.001-.001-.001 0 0l.004-.002-.004.002zM12.328 71.976c.001 0-.115.014-.319-.002a1.708 1.708 0 0 1-.253-.047c.032-.016.056-.041.092-.052a.782.782 0 0 1 .388-.013l.051.013.079.023.157.049a.066.066 0 0 1 .012.005c-.122.017-.209.024-.207.024zm40.345-14.03a15.873 15.873 0 0 0 3.153-1.33c1.167-.644 2.198-1.352 3.129-2.034-1.534 1.42-3.472 2.714-5.346 3.304-1.21.38-2.388.545-3.576.52a12.12 12.12 0 0 0 2.64-.46zM34.05 84.847c.004.023.078-.022.164-.082l.006.006c-.098.07-.21.15-.17.076zm6.096 2.464c.117.53.16.928.165.924l.042.268.06.326.086.394.455 2.195c.092.418.19.843.307 1.262.035.12.061.222.086.322a25.678 25.678 0 0 0-1.392-2.42c-.615-.958-1.216-1.792-1.215-1.793.002 0-.592-.84-1.25-1.747-.326-.452-.673-.938-.975-1.337l-.657-.885a4.393 4.393 0 0 0-.247-.302c-.162-.288-.51-1.085-.51-1.085s.276-1.139 1.494-2.371c.75-.71 1.517-1.188 2.263-1.493.043.97.177 2.919.588 4.717.037.273.074.556.126.832.077.43.17.847.28 1.232l.086.288.084.252c.06.165.092.284.124.42zm26.45-17.506c-.006.054-.011.081-.016.11l-.022.103c-.068.275-.223.538-.431.8-.209.268-.454.508-.71.82-.251.309-.449.605-.649.87a4.91 4.91 0 0 1-.299.369c-.051.055-.1.108-.152.155l-.037.035-.038.034-.047.031c-.147.098-.37.124-.665.11-.284-.017-.655-.043-.977-.02-.658.03-1.305.214-1.813.515-.253.145-.486.34-.64.46-.084.063-.16.118-.213.146a.235.235 0 0 1-.101.033c-.063.009-.232-.027-.38-.07l-.238-.068c-.083-.019-.18-.044-.258-.055a2.524 2.524 0 0 0-1.26.076 2.532 2.532 0 0 0-.987.635c-.503.526-.778 1.092-1.02 1.616l-.014.028-.002.007c-.338.987-.57 1.928-.732 2.89-.064.388-.11.785-.151 1.187-2.089-.404-3.945-.765-5.857-1.12l-3.405-.616-.225-.039-.028-.004-.053-.008-.056-.007-.111-.015-.45-.064a15.254 15.254 0 0 1-.92-.172l-.573-.125c-6.782-1.243-9.107 4.863-9.107 4.863-.121.317-.24.592-.394.785-.392.478-.933.925-1.508 1.31-.29.19-.594.372-.906.521-.082.04-.146.069-.235.105-.076.033-.13.051-.2.07a1.66 1.66 0 0 1-.434.048c-.439-.008-.912-.152-1.39-.35 1.735-.743 3.38-3.768 4.259-5.075 1.099-1.63 2.04-3.238 3.737-4.325 2.378-1.523 4.334.622 6.923 1.618 3.708 1.422 6.467 1.293 5.501-.01-.77-1.037 2.596.637 3.733-.122 1.006-.67 1.563-1.815 2.214-2.795.295-.441.62-.833.98-1.183.829-.537 1.693-1.016 2.56-1.491 2.143-.751 4.862-1.25 5.96-3.306.58-1.09.036-2.114-.72-2.946-1.012-1.11-2.2-2.026-3.087-3.255-.949-1.316-1.254-3.122-1.271-4.956a8 8 0 0 0 1.866 2.78l.17.158c.063.057.125.109.186.16.124.101.251.2.38.297.516.381 1.04.727 1.505 1.167.476.44.932.955 1.37 1.515.448.568.887 1.138 1.095 1.745.052.151.088.295.102.451.012.13.01.299-.008.473-.015.178-.039.374-.051.585-.006.106-.008.22-.003.333l.004.088.008.088.018.15c.06.436.165.8.224 1.146.03.173.051.335.052.489.007.078.004.16-.004.222z"/><path d="M42.84 25.014c.167.362.368.643.54.852.003.006.005.012.009.017a2.134 2.134 0 0 0 .903.826c.122.055.232.06.34.04a3.02 3.02 0 0 0 1.031.095c-.267-.27-.468-.498-.673-.712l-.055-.055a.505.505 0 0 0-.207-.238.79.79 0 0 1-.06-.035l-.344-.342a3.136 3.136 0 0 1-.118-.128c-.134-.235-.183-.504-.184-.501a3.405 3.405 0 0 1-.059-.652c-.004-.356.044-.762.058-.898.024-.252-.119-.42-.389-.688a2.992 2.992 0 0 0-.178.094c.05-.409.157-.79.26-1.08.694.033 1.21.264 1.733.84.508.562.817 1.299 1.326 1.843.614.656 1.448-.59 1.854-1.608a1.04 1.04 0 0 0 .337-.25c.08-.098.249-.286.399-.612.07-.162.139-.367.139-.615a1.21 1.21 0 0 0-.236-.71 1.64 1.64 0 0 0-.465-.417 1.303 1.303 0 0 0-.538-.199.91.91 0 0 0-.524.098c-.01.005-.012.009-.02.013l-.02-.14c-.009-.047-.02-.099-.034-.156a.912.912 0 0 0-.098-.231 1.196 1.196 0 0 0-.193-.242.833.833 0 0 0-.27-.175.688.688 0 0 0-.634.077.63.63 0 0 0-.197.22c-.021.037-.035.079-.05.119-.092.096-.18.21-.277.312-.036-.064-.06-.127-.11-.193a1.13 1.13 0 0 0-.435-.347 1.006 1.006 0 0 0-.582-.062c-.166.03-.297.087-.412.145-.23.08-.446.19-.619.326a2.1 2.1 0 0 0-.643.82l-.047.101c.004-.006-.138.269-.296.706a5.804 5.804 0 0 0-.353 1.755c-.012.343.014.7.085 1.042.064.343.175.66.305.945zm5.345-4.154c.005 0 .004 0 .01.003.01.003.023.011.037.018l.062.038c.066.04.146.108.177.156.019.025.016.045.023.065a1.173 1.173 0 0 0-.344-.062c0-.11.02-.187.035-.218zM45.109 50.312c.356.315.567.504 1.029.515.06.002.156 0 .274-.001a5.17 5.17 0 0 0 .414-.035c.314-.036.663-.108.991-.2.66-.18 1.214-.43 1.214-.428 0 0 .298-.121.685-.314.387-.19.858-.454 1.23-.685l.568-.358-.496-.419c-.185-.158-.334-.183-.444-.209a1.64 1.64 0 0 0-.277-.028c-.156-.001-.267.01-.338.016-.481.058-.69.29-.97.667.103.057.197.105.285.146-.353.176-.622.288-.622.288 0-.001-.513.224-1.093.381-.583.169-1.2.216-1.42.207-.396.004-.67.15-1.03.457zM53.195 16.624c.428.215 1.531.64 1.888.217.058-.013.095.008.114.061-.011-.53-.002-1.06 0-1.59.001-.407-.123-.675-.573-.607-.299.045-.572.213-.88.25-.24.028-.482.003-.722.002-.518 0-.954-.161-1.075.465h.309c-.57.317.765 1.115.94 1.202zM49.477 48l.461-.31c-.8-.244-1.535-.595-2.296-.938-.74-.333-1.13-.282-1.3.577-.12.606-.186 1.551.673 1.426.83-.122 1.633-.575 2.462-.756zM60.446 85.05c.875-.745 1.527-1.483 2.217-2.403l-2.2.206Z"/></g><path d="M165.118 73.626q0-3.246 1.668-9.016t4.373-12.621q2.704-6.852 6.13-14.155a253.94 253.94 0 0 1 4.3-8.74 214.114 214.114 0 0 1 2.597-4.873 151.358 151.358 0 0 1 2.985-5.194q1.886-3.128 3.687-5.715 3.2-4.598 5.454-6.22 1.262.09 2.75 1.081 1.487.992 2.75 2.39a16.329 16.329 0 0 1 1.84 2.454 14.84 14.84 0 0 1 .278.476 8.263 8.263 0 0 1 .488 1.021q.369.945.369 1.773a47.136 47.136 0 0 0-3.834 3.449q-2.189 2.184-4.416 4.89-4.192 5.094-7.978 11.18-3.787 6.085-6.987 12.892-3.2 6.807-5.365 13.388a86.268 86.268 0 0 1 3.712-5.846 73.165 73.165 0 0 1 2.329-3.17q3.155-4.056 6.31-6.941a35.975 35.975 0 0 1 2.736-2.274q1.524-1.139 3.015-1.96a21.669 21.669 0 0 1 .425-.229q3.02-1.578 5.725-1.668 3.967 2.885 3.967 7.663a15.154 15.154 0 0 1-.774 4.718 17.842 17.842 0 0 1-.398 1.097q-1.172 2.93-3.11 5.41-1.939 2.479-4.418 4.237a14.312 14.312 0 0 1-3.187 1.722 12.49 12.49 0 0 1-1.997.577q.902 3.155 2.299 6.4 1.397 3.246 3.336 6.312 1.938 3.065 4.417 5.68 2.48 2.614 5.635 4.417-.423.845-1.241 1.69a9.963 9.963 0 0 1-.111.113 8.675 8.675 0 0 1-1.464 1.169 10.443 10.443 0 0 1-.7.409 12.89 12.89 0 0 1-2.336.963 14.558 14.558 0 0 1-.414.119 11.273 11.273 0 0 1-2.478.396 10.342 10.342 0 0 1-.452.01 5.052 5.052 0 0 1-2.744-.836q-.931-.59-1.809-1.599a15.369 15.369 0 0 1-1.531-2.13q-.692-1.14-1.333-2.549a36.108 36.108 0 0 1-.967-2.353 64.162 64.162 0 0 1-1.002-2.975q-.515-1.655-1.016-3.53a118.208 118.208 0 0 1-.597-2.33 163.764 163.764 0 0 1-1.74-7.962 181.962 181.962 0 0 1-.514-2.766q1.263-.812 3.156-2.39 1.893-1.577 3.967-3.65a47.29 47.29 0 0 0 3.424-3.647q3.259-3.897 4.162-7.179a9.134 9.134 0 0 0 .347-2.428.732.732 0 0 0-.074-.34q-.197-.38-.917-.38-1.804.09-4.238 1.712a24.036 24.036 0 0 0-2.11 1.594q-1.02.856-2.09 1.912a45.754 45.754 0 0 0-.984 1.002q-2.75 2.885-5.59 6.761-2.84 3.877-5.454 8.385a23.682 23.682 0 0 0-1.145 2.166 30.933 30.933 0 0 0-.838 1.981q-.902 2.344-1.578 4.823-.676 2.48-1.037 4.914a34.714 34.714 0 0 0-.286 2.554 26.834 26.834 0 0 0-.074 1.953 9.758 9.758 0 0 0 .031.815q.036.409.106.756a4.36 4.36 0 0 0 .133.503 11.109 11.109 0 0 1-1.118-.161q-1.137-.23-1.755-.674a1.814 1.814 0 0 1-.553-.607q-.645-.968-1.11-1.611a26.332 26.332 0 0 0-.107-.147q-.496-.677-1.036-1.127a2.24 2.24 0 0 1-.458-.503q-.374-.54-.677-1.458a12.215 12.215 0 0 1-.218-.744q-.54-2.074-.54-5.229zm44.898 0q0-3.246 1.667-9.016 1.668-5.77 4.373-12.621 2.705-6.852 6.13-14.155a253.94 253.94 0 0 1 4.3-8.74 214.114 214.114 0 0 1 2.597-4.873 151.358 151.358 0 0 1 2.985-5.194q1.886-3.128 3.687-5.715 3.2-4.598 5.454-6.22 1.262.09 2.75 1.081 1.487.992 2.75 2.39a16.329 16.329 0 0 1 1.84 2.454 14.84 14.84 0 0 1 .278.476 8.263 8.263 0 0 1 .488 1.021q.369.945.369 1.773a47.136 47.136 0 0 0-3.834 3.449q-2.189 2.184-4.415 4.89-4.193 5.094-7.98 11.18-3.786 6.085-6.986 12.892-3.2 6.807-5.364 13.388a86.268 86.268 0 0 1 3.711-5.846 73.165 73.165 0 0 1 2.329-3.17q3.155-4.056 6.31-6.941a35.975 35.975 0 0 1 2.736-2.274q1.524-1.139 3.015-1.96a21.669 21.669 0 0 1 .425-.229q3.02-1.578 5.725-1.668 3.967 2.885 3.967 7.663a15.154 15.154 0 0 1-.773 4.718 17.842 17.842 0 0 1-.399 1.097q-1.172 2.93-3.11 5.41-1.939 2.479-4.418 4.237a14.312 14.312 0 0 1-3.187 1.722 12.49 12.49 0 0 1-1.997.577q.902 3.155 2.3 6.4 1.397 3.246 3.335 6.312 1.938 3.065 4.418 5.68 2.479 2.614 5.634 4.417-.423.845-1.241 1.69a9.963 9.963 0 0 1-.111.113 8.675 8.675 0 0 1-1.464 1.169 10.443 10.443 0 0 1-.7.409 12.89 12.89 0 0 1-2.336.963 14.558 14.558 0 0 1-.414.119 11.273 11.273 0 0 1-2.478.396 10.342 10.342 0 0 1-.452.01 5.052 5.052 0 0 1-2.744-.836q-.931-.59-1.808-1.599a15.369 15.369 0 0 1-1.532-2.13q-.692-1.14-1.333-2.549a36.108 36.108 0 0 1-.967-2.353 64.162 64.162 0 0 1-1.002-2.975q-.514-1.655-1.016-3.53a118.208 118.208 0 0 1-.596-2.33 163.764 163.764 0 0 1-1.741-7.962 181.962 181.962 0 0 1-.513-2.766q1.262-.812 3.155-2.39 1.893-1.577 3.967-3.65a47.29 47.29 0 0 0 3.424-3.647q3.26-3.897 4.162-7.179a9.134 9.134 0 0 0 .348-2.428.732.732 0 0 0-.074-.34q-.198-.38-.918-.38-1.803.09-4.237 1.712a24.036 24.036 0 0 0-2.11 1.594q-1.02.856-2.09 1.912a45.754 45.754 0 0 0-.984 1.002q-2.75 2.885-5.59 6.761-2.84 3.877-5.454 8.385a23.682 23.682 0 0 0-1.145 2.166 30.933 30.933 0 0 0-.839 1.981q-.901 2.344-1.578 4.823-.676 2.48-1.036 4.914a34.714 34.714 0 0 0-.287 2.554 26.834 26.834 0 0 0-.074 1.953 9.758 9.758 0 0 0 .032.815q.035.409.105.756a4.36 4.36 0 0 0 .134.503 11.109 11.109 0 0 1-1.12-.161q-1.136-.23-1.754-.674a1.814 1.814 0 0 1-.552-.607q-.646-.968-1.11-1.611a26.332 26.332 0 0 0-.107-.147q-.496-.677-1.037-1.127a2.24 2.24 0 0 1-.458-.503q-.373-.54-.676-1.458a12.215 12.215 0 0 1-.219-.744q-.54-2.074-.54-5.229zM154.453 45.73a6.37 6.37 0 0 0-.784-.052q-.992 2.073-2.119 4.282-1.127 2.21-2.299 4.373-1.172 2.163-2.299 4.147-1.127 1.983-2.028 3.606-3.424 5.768-6.134 9.42a43.915 43.915 0 0 1-2.16 2.706 29.273 29.273 0 0 1-1.03 1.122q-2.797 2.883-5.011 3.34a1.75 1.75 0 0 1-.832-.593q-.43-.57-.43-1.57 0-2.333.627-4.865a28.486 28.486 0 0 1 1.356-4.06q1.984-4.779 5.094-8.97a40.976 40.976 0 0 1 .791-1.034 36.103 36.103 0 0 1 6.15-6.134 24.68 24.68 0 0 1 .985-.727q1.47-1.029 2.907-1.694a13.05 13.05 0 0 1 3.547-1.095q-.063-.561-.427-1.273a7.989 7.989 0 0 0-.385-.666 13.011 13.011 0 0 0-.533-.769 15.396 15.396 0 0 0-1.225-1.44 17.441 17.441 0 0 0-.326-.331 15.464 15.464 0 0 0-1.837-1.562 10.803 10.803 0 0 0-.6-.403q-.774-.482-1.429-.678a9.695 9.695 0 0 0-1.916.29q-2.8.711-5.747 3.09a35.014 35.014 0 0 0-3.243 2.982 43.066 43.066 0 0 0-4.105 4.997q-3.38 4.778-5.544 10.368a34.732 34.732 0 0 0-1.401 4.452 26.552 26.552 0 0 0-.763 6.186 20.53 20.53 0 0 0 .007.558q.117 4.312 2.066 7.15a9.35 9.35 0 0 0 .539.71 6.595 6.595 0 0 0 4.87 2.491q2.074-.36 4.554-2.119 2.479-1.758 4.913-4.553a48.351 48.351 0 0 0 2.112-2.609 61.284 61.284 0 0 0 2.666-3.837q2.344-3.65 4.147-7.798a90.238 90.238 0 0 0-.806 2.183q-2.62 7.388-2.62 11.881a14.635 14.635 0 0 0 .104 1.804q.412 3.31 2.467 4.37a4.955 4.955 0 0 0 2.298.498 8.531 8.531 0 0 0 .343-.008q.622-.025 1.317-.14a15.368 15.368 0 0 0 1.405-.303 13.704 13.704 0 0 0 .583-.167q1.32-.411 2.212-1.005a3.63 3.63 0 0 1-1.296-1.271 5.125 5.125 0 0 1-.507-1.118q-.541-1.668-.541-4.192 0-2.254.586-5.32a54.121 54.121 0 0 1 .608-2.768 69.313 69.313 0 0 1 1.06-3.813 85.532 85.532 0 0 1 .874-2.681 101.681 101.681 0 0 1 1.74-4.667q1.533-3.831 3.336-7.618a.673.673 0 0 0-.034-.207q-.082-.255-.363-.536a3.338 3.338 0 0 0-.28-.248q-.38-.305-.86-.595a11.578 11.578 0 0 0-.807-.442q-.992-.496-2.209-.812-.723-.187-1.334-.263zm131.717 0a6.37 6.37 0 0 0-.785-.052q-.992 2.073-2.118 4.282-1.127 2.21-2.3 4.373-1.171 2.163-2.298 4.147-1.127 1.983-2.029 3.606-3.423 5.768-6.133 9.42a43.915 43.915 0 0 1-2.161 2.706 29.273 29.273 0 0 1-1.03 1.122q-2.796 2.883-5.01 3.34a1.75 1.75 0 0 1-.833-.593q-.43-.57-.43-1.57 0-2.333.628-4.865a28.486 28.486 0 0 1 1.356-4.06q1.983-4.779 5.093-8.97a40.976 40.976 0 0 1 .792-1.034 36.103 36.103 0 0 1 6.15-6.134 24.68 24.68 0 0 1 .985-.727q1.47-1.029 2.907-1.694a13.05 13.05 0 0 1 3.546-1.095q-.062-.561-.426-1.273a7.989 7.989 0 0 0-.385-.666 13.011 13.011 0 0 0-.533-.769 15.396 15.396 0 0 0-1.225-1.44 17.441 17.441 0 0 0-.327-.331 15.464 15.464 0 0 0-1.837-1.562 10.803 10.803 0 0 0-.6-.403q-.773-.482-1.428-.678a9.695 9.695 0 0 0-1.916.29q-2.8.711-5.748 3.09a35.014 35.014 0 0 0-3.242 2.982 43.066 43.066 0 0 0-4.105 4.997q-3.381 4.778-5.545 10.368a34.732 34.732 0 0 0-1.4 4.452 26.552 26.552 0 0 0-.763 6.186 20.53 20.53 0 0 0 .007.558q.117 4.312 2.066 7.15a9.35 9.35 0 0 0 .538.71 6.595 6.595 0 0 0 4.871 2.491q2.074-.36 4.553-2.119 2.48-1.758 4.914-4.553a48.351 48.351 0 0 0 2.112-2.609 61.284 61.284 0 0 0 2.666-3.837q2.344-3.65 4.147-7.798a90.238 90.238 0 0 0-.807 2.183q-2.619 7.388-2.619 11.881a14.635 14.635 0 0 0 .104 1.804q.412 3.31 2.466 4.37a4.955 4.955 0 0 0 2.298.498 8.531 8.531 0 0 0 .343-.008q.623-.025 1.317-.14a15.368 15.368 0 0 0 1.406-.303 13.704 13.704 0 0 0 .583-.167q1.32-.411 2.212-1.005a3.63 3.63 0 0 1-1.297-1.271 5.125 5.125 0 0 1-.507-1.118q-.54-1.668-.54-4.192 0-2.254.586-5.32a54.121 54.121 0 0 1 .607-2.768 69.313 69.313 0 0 1 1.06-3.813 85.532 85.532 0 0 1 .875-2.681 101.681 101.681 0 0 1 1.74-4.667q1.533-3.831 3.336-7.618a.673.673 0 0 0-.035-.207q-.082-.255-.362-.536a3.338 3.338 0 0 0-.28-.248q-.38-.305-.86-.595a11.578 11.578 0 0 0-.807-.442q-.992-.496-2.21-.812-.722-.187-1.333-.263zm41.273 2.908a16.381 16.381 0 0 0 .315-2.42 3.51 3.51 0 0 0-.09-.3q-.35-1.005-1.443-2.449a28.744 28.744 0 0 0-.664-.844 32.993 32.993 0 0 0-2.22-2.447 40.355 40.355 0 0 0-.61-.597 35.746 35.746 0 0 0-2.681-2.333 19.274 19.274 0 0 0-.586-.442q-.829-.6-1.463-.9a3.723 3.723 0 0 0-.61-.235 12.703 12.703 0 0 0-1.197.339 14.034 14.034 0 0 0-3.312 1.644q-2.163 1.443-3.786 3.471-1.623 2.029-2.615 4.418a14.169 14.169 0 0 0-.12.298 12.4 12.4 0 0 0-.871 4.525q0 1.893.45 3.832.451 1.938.947 3.966a115.284 115.284 0 0 1 .03.127 125.532 125.532 0 0 1 .917 4.066q.45 2.163.45 4.417a24.635 24.635 0 0 0-.982.087 21.452 21.452 0 0 0-6.365 1.671q-3.38 1.488-5.86 3.877-2.48 2.389-3.922 5.5-1.442 3.11-1.442 6.536a6.927 6.927 0 0 0 .438 1.134 8.594 8.594 0 0 0 .824 1.345q.901 1.217 2.118 2.209 1.218.991 2.57 1.622a8.756 8.756 0 0 0 1.043.41 6.755 6.755 0 0 0 1.571.312 21.958 21.958 0 0 0 4.054-.77 15.477 15.477 0 0 0 7.351-4.55 15.63 15.63 0 0 0 3.531-6.934 22.704 22.704 0 0 0 .571-5.236 51.319 51.319 0 0 0 0-.053q0-1.046-.045-1.75-.045-.722-.045-1.443a3.525 3.525 0 0 1 .013-.324q.03-.318.122-.532a.593.593 0 0 1 .081-.135q.13-.164.403-.314a3.117 3.117 0 0 1 .282-.137 6.117 6.117 0 0 1 .24-.097q.605-.23 1.609-.49a47.39 47.39 0 0 1 .617-.155q1.086-.266 2.673-.61a1.064 1.064 0 0 0 .236-.372q.065-.169.096-.38a2.88 2.88 0 0 0 .029-.42 6.029 6.029 0 0 0-.001-.077q-.004-.35-.05-.532a.556.556 0 0 0-.04-.113q-1.442 0-2.93.045a138.971 138.971 0 0 0-.199.006q-1.413.045-3.181.13a.215.215 0 0 1-.003-.006q-.071-.153-.084-.764a14.25 14.25 0 0 1-.003-.313q0-8.745 1.893-13.252 1.893-4.508 5.5-4.508a2.282 2.282 0 0 1 .018 0q.6.005 1.05.326a2.092 2.092 0 0 1 .51.53 3.246 3.246 0 0 1 .485 1.143 4.502 4.502 0 0 1 .1.976 2.923 2.923 0 0 1-.012.263q-.021.228-.076.483a5.903 5.903 0 0 1-.137.516q-.226.721-.496 1.443-.27.72-.496 1.307a6.484 6.484 0 0 0-.095.264q-.085.252-.114.426a1.01 1.01 0 0 0-.016.166q.109.765.515 1.1a1.173 1.173 0 0 0 .657.253q.54 0 1.132-.558a4.595 4.595 0 0 0 .4-.434q.457-.558.885-1.273a15.601 15.601 0 0 0 .648-1.206 16.639 16.639 0 0 0 .588-1.37 20.73 20.73 0 0 0 .63-1.966 19.39 19.39 0 0 0 .27-1.142zM85.647 73.4a166.26 166.26 0 0 0-.102.387q-1.046 4.014-1.476 6.51.186.495.67 1.034a6.723 6.723 0 0 0 .502.498 14.034 14.034 0 0 0 .525.449 16.23 16.23 0 0 0 1.503 1.084 18.378 18.378 0 0 0 .432.267 16.166 16.166 0 0 0 1.822.95 10.641 10.641 0 0 0 .593.24q.756.28 1.346.346a148.988 148.988 0 0 1 .64-2.822q1.06-4.456 2.2-7.907a44.118 44.118 0 0 1 1.312-3.491 34.87 34.87 0 0 1 2.294-4.487q2.118-3.471 5.093-6.311a44.805 44.805 0 0 1 .4-.378q1.423-1.324 3.117-2.678a74.786 74.786 0 0 1 3.696-2.76q.901 2.615 2.795 4.824a16.34 16.34 0 0 0 .178.205 14.348 14.348 0 0 0 4.15 3.266q1.351-1.352 2.478-2.885.881-1.197 1.128-1.79a1.328 1.328 0 0 0 .09-.283 5.6 5.6 0 0 1-.19-.35q-.983-1.968-.983-5.6a22.488 22.488 0 0 1 .16-2.658 25.31 25.31 0 0 1 1.463-5.907q-.31-.496-.96-.843a4.628 4.628 0 0 0-.663-.284q-1.172-.406-2.434-.406-.909 0-1.45.204a1.517 1.517 0 0 0-.443.247 73.896 73.896 0 0 1-.82 1.202 66.109 66.109 0 0 1-6.167 7.633q-3.741 3.967-8.61 8.294 1.183-3.606 2.349-6.403a49.233 49.233 0 0 1 1.393-3.063 37.144 37.144 0 0 1 .836-1.579 32.126 32.126 0 0 1 3.446-5.002q-.34-.397-.858-.812a11.005 11.005 0 0 0-.675-.496 16.93 16.93 0 0 0-.92-.583 21.596 21.596 0 0 0-1.334-.724q-1.262-.631-2.614-1.082a16.853 16.853 0 0 0-.837-.255 14.214 14.214 0 0 0-1.778-.376q-1.081 1.082-1.983 2.66-.62 1.084-1.368 2.744a68.18 68.18 0 0 0-.706 1.628q-1.622 3.877-3.335 8.745-1.713 4.869-3.246 9.692a213.952 213.952 0 0 0-1.093 3.541 175.335 175.335 0 0 0-1.566 5.565Zm212.36 13.929q2.164-.902 4.102-2.615 1.938-1.713 3.38-3.877 1.443-2.163 2.3-4.598a15.058 15.058 0 0 0 .764-3.23 13.155 13.155 0 0 0 .092-1.548q-1.803.27-3.967 1.668-2.163 1.398-4.057 3.336a23.86 23.86 0 0 0-2.213 2.602 20.29 20.29 0 0 0-.942 1.41q-.799 1.312-1.092 2.407a4.643 4.643 0 0 0-.17 1.199 3.676 3.676 0 0 0 1.284 2.834 5.344 5.344 0 0 0 .519.412Z" fill-rule="evenodd" stroke-width=".293" stroke-linecap="round"/></g></svg>